<svg width="24" height="25" viewBox="0 0 24 25" fill="none" xmlns="http://www.w3.org/2000/svg">
  <path d="M20.05 11.9409H3.95C3.42533 11.9409 3 12.3662 3 12.8909V12.9909C3 13.5156 3.42533 13.9409 3.95 13.9409H20.05C20.5747 13.9409 21 13.5156 21 12.9909V12.8909C21 12.3662 20.5747 11.9409 20.05 11.9409Z" fill="currentColor"/>
  <path d="M20.05 16.9409H3.95C3.42533 16.9409 3 17.3662 3 17.8909V17.9909C3 18.5156 3.42533 18.9409 3.95 18.9409H20.05C20.5747 18.9409 21 18.5156 21 17.9909V17.8909C21 17.3662 20.5747 16.9409 20.05 16.9409Z" fill="currentColor"/>
  <path d="M20.05 6.94092H3.95C3.42533 6.94092 3 7.36625 3 7.89092V7.99092C3 8.51559 3.42533 8.94092 3.95 8.94092H20.05C20.5747 8.94092 21 8.51559 21 7.99092V7.89092C21 7.36625 20.5747 6.94092 20.05 6.94092Z" fill="currentColor"/>
</svg>