<svg width="13" height="14" viewBox="0 0 13 14" fill="none" xmlns="http://www.w3.org/2000/svg">
<path d="M8.65631 13V10.7914C8.67772 10.5193 8.64095 10.2457 8.54846 9.98887C8.45596 9.73204 8.30985 9.49785 8.11985 9.30186C9.91185 9.10212 11.7952 8.42298 11.7952 5.30696C11.795 4.51016 11.4885 3.74392 10.9391 3.16683C11.1993 2.46972 11.1809 1.69919 10.8877 1.01529C10.8877 1.01529 10.2143 0.815546 8.65631 1.85993C7.34827 1.50542 5.96945 1.50542 4.66141 1.85993C3.10339 0.815546 2.42997 1.01529 2.42997 1.01529C2.13684 1.69919 2.11845 2.46972 2.37861 3.16683C1.8251 3.7482 1.51829 4.52137 1.52255 5.32408C1.52255 8.41728 3.40587 9.09641 5.19786 9.31898C5.0101 9.513 4.8653 9.74439 4.77287 9.99807C4.68044 10.2518 4.64246 10.5221 4.66141 10.7914V13M4.66141 11.2879C1.8079 12.1439 1.8079 9.86115 0.666504 9.5758L4.66141 11.2879Z" stroke="white" stroke-linecap="round" stroke-linejoin="round"/>
</svg>
