<svg width="14" height="14" viewBox="0 0 14 14" fill="none" xmlns="http://www.w3.org/2000/svg">
  <path d="M11.2298 0.710917L8.30424 5.05557C8.25683 5.11828 8.23491 5.19663 8.24289 5.27485C8.25087 5.35308 8.28815 5.42538 8.34724 5.47721C8.40632 5.52904 8.48283 5.55657 8.56138 5.55424C8.63992 5.55192 8.71467 5.51992 8.7706 5.46468L11.6496 2.9758C11.6662 2.96057 11.6869 2.95055 11.7091 2.94698C11.7313 2.94341 11.7541 2.94646 11.7747 2.95573C11.7952 2.96501 11.8125 2.98011 11.8246 2.99916C11.8366 3.01821 11.8428 3.04038 11.8423 3.06291V10.8858C11.8421 10.9095 11.8346 10.9326 11.8209 10.952C11.8072 10.9714 11.7879 10.9862 11.7656 10.9943C11.7433 11.0024 11.719 11.0035 11.6961 10.9975C11.6731 10.9914 11.6526 10.9785 11.6371 10.9605L2.93182 0.53825C2.79285 0.370931 2.61898 0.236056 2.42241 0.143081C2.22585 0.0501057 2.01133 0.00128085 1.79392 2.91996e-05H1.49078C1.0954 2.91996e-05 0.716217 0.157198 0.43664 0.43696C0.157064 0.716722 0 1.09616 0 1.4918V12.5082C0 12.9039 0.157064 13.2833 0.43664 13.5631C0.716217 13.8428 1.0954 14 1.49078 14C1.74554 14 1.99604 13.9346 2.21838 13.8102C2.44071 13.6857 2.62747 13.5063 2.76083 13.2891L5.68643 8.94445C5.73384 8.88175 5.75576 8.8034 5.74778 8.72518C5.7398 8.64695 5.70252 8.57465 5.64344 8.52282C5.58435 8.47098 5.50784 8.44346 5.42929 8.44578C5.35075 8.44811 5.276 8.48011 5.22008 8.53535L2.34111 11.0242C2.32451 11.0395 2.30381 11.0495 2.28157 11.053C2.25933 11.0566 2.23654 11.0536 2.21601 11.0443C2.19549 11.035 2.17813 11.0199 2.1661 11.0009C2.15408 10.9818 2.1479 10.9596 2.14835 10.9371V3.12202C2.14858 3.09827 2.15605 3.07516 2.16977 3.05577C2.18348 3.03638 2.20278 3.02165 2.22509 3.01353C2.24739 3.00541 2.27164 3.0043 2.2946 3.01035C2.31755 3.01639 2.33812 3.0293 2.35354 3.04736L11.0588 13.4696C11.1989 13.6354 11.3734 13.7686 11.5702 13.8599C11.767 13.9513 11.9814 13.9986 12.1983 13.9984H12.5092C12.705 13.9984 12.8988 13.9599 13.0797 13.8849C13.2606 13.8099 13.4249 13.7 13.5634 13.5615C13.7018 13.423 13.8116 13.2585 13.8865 13.0775C13.9614 12.8966 14 12.7026 14 12.5067V1.4918C14 1.29511 13.9611 1.10036 13.8856 0.918762C13.8101 0.737161 13.6995 0.572293 13.5601 0.433646C13.4206 0.295 13.2552 0.185312 13.0733 0.110894C12.8913 0.0364764 12.6964 -0.0012014 12.4999 2.91996e-05C12.2451 5.97831e-05 11.9946 0.0654185 11.7723 0.189868C11.55 0.314318 11.3632 0.493707 11.2298 0.710917Z" fill="currentColor"/>
</svg>