<svg width="20" height="20" viewBox="0 0 20 20" fill="none" xmlns="http://www.w3.org/2000/svg">
<path d="M12.8623 5.74377L10.8826 8.68376C10.8505 8.72619 10.8357 8.77921 10.8411 8.83214C10.8465 8.88508 10.8717 8.934 10.9117 8.96908C10.9517 9.00415 11.0034 9.02278 11.0566 9.02121C11.1097 9.01963 11.1603 8.99798 11.1982 8.9606L13.1463 7.2764C13.1576 7.26609 13.1716 7.25931 13.1866 7.25689C13.2017 7.25448 13.2171 7.25654 13.231 7.26281C13.2449 7.26909 13.2566 7.27931 13.2648 7.2922C13.2729 7.30509 13.2771 7.32009 13.2768 7.33534V12.629C13.2766 12.6451 13.2716 12.6607 13.2623 12.6738C13.253 12.687 13.24 12.6969 13.2249 12.7024C13.2098 12.7079 13.1934 12.7087 13.1778 12.7046C13.1623 12.7005 13.1484 12.6918 13.1379 12.6795L7.24712 5.62692C7.15308 5.5137 7.03543 5.42243 6.90241 5.35952C6.7694 5.2966 6.62424 5.26356 6.47711 5.26272H6.27198C6.00443 5.26272 5.74784 5.36907 5.55865 5.55838C5.36947 5.7477 5.26318 6.00446 5.26318 6.27219V13.7269C5.26318 13.9946 5.36947 14.2514 5.55865 14.4407C5.74784 14.63 6.00443 14.7364 6.27198 14.7364C6.44438 14.7364 6.61389 14.6921 6.76434 14.6079C6.91479 14.5237 7.04117 14.4023 7.13141 14.2553L9.11115 11.3153C9.14322 11.2729 9.15806 11.2199 9.15266 11.167C9.14726 11.114 9.12203 11.0651 9.08205 11.03C9.04207 10.9949 8.99029 10.9763 8.93714 10.9779C8.88399 10.9795 8.83341 11.0011 8.79557 11.0385L6.84739 12.7227C6.83616 12.733 6.82215 12.7398 6.8071 12.7422C6.79205 12.7446 6.77663 12.7426 6.76274 12.7363C6.74885 12.73 6.73711 12.7198 6.72897 12.7069C6.72083 12.694 6.71665 12.679 6.71695 12.6638V7.37534C6.71711 7.35927 6.72217 7.34363 6.73145 7.33051C6.74073 7.31739 6.75379 7.30742 6.76888 7.30193C6.78398 7.29643 6.80039 7.29568 6.81592 7.29977C6.83145 7.30386 6.84537 7.3126 6.85581 7.32482L12.7466 14.3774C12.8414 14.4896 12.9595 14.5798 13.0926 14.6416C13.2258 14.7034 13.3709 14.7354 13.5177 14.7353H13.7281C13.8605 14.7353 13.9917 14.7092 14.1141 14.6585C14.2365 14.6078 14.3477 14.5334 14.4414 14.4397C14.5351 14.3459 14.6094 14.2346 14.6601 14.1122C14.7108 13.9897 14.7369 13.8584 14.7369 13.7259V6.27219C14.7369 6.13909 14.7106 6.0073 14.6595 5.88441C14.6084 5.76153 14.5335 5.64996 14.4392 5.55614C14.3448 5.46232 14.2329 5.38809 14.1097 5.33774C13.9866 5.28738 13.8548 5.26188 13.7218 5.26272C13.5494 5.26274 13.3799 5.30696 13.2294 5.39118C13.0789 5.47539 12.9526 5.59678 12.8623 5.74377Z" fill="currentColor"/>
<circle cx="10" cy="10" r="9.58333" stroke="currentColor" stroke-width="0.833333"/>
</svg>
