<svg width="16" height="16" viewBox="0 0 16 16" fill="none" xmlns="http://www.w3.org/2000/svg">
<rect width="16" height="16" rx="4" fill="#161515"/>
<path d="M2 11.8576V4.14243H4.0915C4.6289 4.14243 5.1191 4.21365 5.56209 4.35608C6.01234 4.49852 6.39723 4.72404 6.71677 5.03264C7.0363 5.34125 7.28322 5.73689 7.45751 6.21958C7.63906 6.70228 7.72984 7.28388 7.72984 7.96439C7.72984 8.64491 7.64269 9.23047 7.4684 9.72107C7.29411 10.2117 7.0472 10.6152 6.72766 10.9318C6.41539 11.2483 6.04139 11.4817 5.60566 11.632C5.17719 11.7824 4.70878 11.8576 4.20043 11.8576H2ZM3.87364 10.2196H3.98257C4.23674 10.2196 4.47639 10.1879 4.70152 10.1246C4.92665 10.0534 5.1191 9.93472 5.27886 9.76855C5.44589 9.60237 5.57661 9.3729 5.67102 9.08012C5.76543 8.78734 5.81263 8.41543 5.81263 7.96439C5.81263 7.51335 5.76543 7.1454 5.67102 6.86053C5.57661 6.57567 5.44589 6.35411 5.27886 6.19585C5.1191 6.03759 4.92665 5.93076 4.70152 5.87537C4.47639 5.81207 4.23674 5.78042 3.98257 5.78042H3.87364V10.2196Z" fill="white"/>
<path d="M11.2331 12C10.7829 12 10.3181 11.913 9.83879 11.7389C9.36675 11.5569 8.93828 11.276 8.55338 10.8961L9.62092 9.49555C9.8751 9.71711 10.1474 9.89911 10.4379 10.0415C10.7357 10.1761 11.0153 10.2433 11.2767 10.2433C11.5599 10.2433 11.7633 10.1958 11.8867 10.1009C12.0174 10.0059 12.0828 9.87141 12.0828 9.69733C12.0828 9.60237 12.061 9.52324 12.0174 9.45994C11.9739 9.39664 11.9085 9.33729 11.8214 9.2819C11.7415 9.22651 11.6434 9.17507 11.5272 9.1276C11.411 9.07221 11.2767 9.01286 11.1242 8.94956L10.2418 8.54599C10.053 8.46687 9.87147 8.364 9.69717 8.23739C9.52288 8.10287 9.37038 7.94857 9.23966 7.77448C9.10894 7.59248 9.00364 7.38675 8.92375 7.15727C8.85113 6.92779 8.81482 6.67458 8.81482 6.39763C8.81482 6.06528 8.88018 5.75668 9.0109 5.47181C9.14162 5.17903 9.32317 4.92582 9.55556 4.71217C9.78795 4.4906 10.0639 4.31652 10.3834 4.18991C10.7102 4.0633 11.0661 4 11.451 4C11.8577 4 12.268 4.08309 12.6819 4.24926C13.1031 4.41543 13.4771 4.67656 13.8039 5.03264L12.8671 6.31454C12.6275 6.13254 12.3951 5.99407 12.1699 5.89911C11.9521 5.80415 11.7124 5.75668 11.451 5.75668C11.2186 5.75668 11.037 5.8002 10.9063 5.88724C10.7756 5.97428 10.7102 6.10485 10.7102 6.27893C10.7102 6.46093 10.801 6.60336 10.9826 6.70623C11.1714 6.80119 11.4292 6.91593 11.756 7.05045L12.6166 7.4184C13.0596 7.60831 13.4009 7.87339 13.6405 8.21365C13.8802 8.55391 14 8.99308 14 9.53116C14 9.85559 13.9383 10.1682 13.8148 10.4688C13.6914 10.7695 13.5098 11.0346 13.2702 11.2641C13.0378 11.4857 12.7509 11.6637 12.4096 11.7982C12.0683 11.9327 11.6761 12 11.2331 12Z" fill="white"/>
</svg>
