<?xml version="1.0" standalone="no"?>
<!DOCTYPE svg PUBLIC "-//W3C//DTD SVG 20010904//EN"
 "http://www.w3.org/TR/2001/REC-SVG-20010904/DTD/svg10.dtd">
<svg version="1.0" xmlns="http://www.w3.org/2000/svg"
 width="1248.000000pt" height="1248.000000pt" viewBox="0 0 1248.000000 1248.000000"
 preserveAspectRatio="xMidYMid meet">
<metadata>
Created by potrace 1.14, written by Peter Selinger 2001-2017
</metadata>
<g transform="translate(0.000000,1248.000000) scale(0.100000,-0.100000)"
fill="#000000" stroke="none">
<path d="M10279 10555 c-3 -2 -31 -6 -64 -9 -76 -6 -136 -14 -201 -27 -28 -5
-62 -12 -77 -14 -15 -3 -38 -10 -52 -15 -14 -5 -25 -7 -25 -4 0 4 -6 2 -12 -4
-7 -6 -16 -10 -21 -10 -15 -1 -72 -14 -82 -20 -5 -4 -37 -16 -70 -28 -33 -12
-78 -30 -100 -40 -22 -10 -42 -18 -45 -19 -3 0 -27 -13 -55 -27 -228 -119
-438 -292 -580 -478 -28 -36 -53 -66 -57 -68 -5 -2 -8 -10 -8 -18 0 -8 -4 -14
-10 -14 -5 0 -10 -5 -10 -11 0 -6 -12 -29 -27 -52 -16 -23 -34 -51 -40 -62
-19 -30 -90 -179 -98 -206 -4 -13 -11 -28 -15 -34 -4 -5 -17 -41 -29 -80 -13
-38 -25 -77 -28 -85 -7 -19 -11 -30 -16 -56 -3 -11 -12 -49 -21 -85 -9 -35
-18 -77 -21 -94 -3 -16 -7 -39 -9 -50 -2 -11 -7 -47 -10 -80 -4 -33 -10 -76
-14 -95 -3 -19 -6 -152 -6 -295 0 -228 3 -297 18 -405 10 -73 17 -118 21 -140
3 -14 7 -35 10 -48 2 -13 6 -31 9 -40 3 -9 8 -32 11 -51 3 -19 10 -42 16 -52
5 -11 8 -19 6 -19 -2 0 9 -37 25 -82 16 -46 30 -90 32 -98 4 -15 44 -109 68
-160 7 -14 21 -38 33 -55 11 -16 19 -32 17 -35 -3 -7 128 -205 165 -249 89
-108 145 -166 233 -241 35 -30 70 -60 76 -65 6 -6 42 -31 80 -55 38 -25 71
-47 74 -50 7 -9 229 -115 265 -128 17 -5 39 -14 50 -18 11 -4 22 -8 25 -9 3
-1 12 -4 20 -7 31 -12 126 -40 145 -43 11 -2 51 -11 88 -19 37 -8 87 -17 110
-20 23 -3 53 -8 67 -11 81 -17 417 -23 555 -10 39 4 87 7 107 8 21 1 38 6 38
10 0 5 4 6 8 3 12 -7 233 38 312 64 36 12 70 23 75 24 6 1 20 7 32 14 12 7 27
12 33 12 25 0 228 103 318 163 92 60 215 159 272 218 106 112 172 195 242 305
55 87 128 230 161 314 13 36 28 74 32 85 5 11 9 23 10 28 2 4 4 9 5 12 1 3 3
8 4 13 1 4 5 13 9 20 5 6 6 12 3 12 -3 0 2 19 10 43 9 23 17 51 18 62 2 11 6
30 10 42 4 12 8 30 10 40 24 121 36 193 35 200 -1 4 0 10 1 13 18 41 33 508
19 562 -4 15 -3 30 2 34 5 3 6 10 2 17 -3 6 -8 29 -9 51 -4 58 -11 115 -18
156 -3 19 -8 51 -11 70 -3 19 -10 55 -15 80 -6 25 -13 56 -15 70 -9 50 -54
189 -98 301 -67 168 -158 328 -266 464 -51 66 -187 205 -242 250 -54 44 -136
103 -174 125 -22 13 -42 27 -45 30 -14 18 -294 148 -295 138 -1 -2 -13 5 -28
15 -15 9 -27 15 -27 12 0 -2 -12 0 -27 6 -51 20 -225 64 -293 74 -95 13 -128
18 -145 22 -24 6 -471 13 -476 8z m371 -709 c96 -15 139 -26 220 -55 25 -9 47
-16 50 -17 16 -3 47 -19 63 -32 9 -8 17 -12 17 -9 0 4 31 -15 69 -41 342 -236
506 -643 501 -1242 -1 -151 -2 -172 -14 -295 -15 -144 -60 -325 -114 -454 -30
-74 -113 -226 -131 -241 -3 -3 -26 -30 -51 -60 -156 -189 -367 -300 -640 -334
-101 -13 -300 -4 -415 19 -165 32 -346 129 -469 250 -47 46 -120 133 -129 155
-8 17 -29 52 -37 60 -10 10 -50 96 -78 170 -43 110 -68 207 -88 334 -3 21 -8
48 -10 60 -25 124 -23 560 3 711 2 17 6 41 8 55 3 14 7 36 10 50 3 14 8 39 10
55 3 17 18 68 32 115 15 47 26 88 25 93 -1 4 2 7 6 7 5 0 9 6 9 13 0 19 87
187 114 221 128 162 205 231 339 304 55 30 200 86 200 77 0 -2 11 0 25 5 32
12 65 18 140 26 33 3 61 7 63 8 4 5 237 -2 272 -8z"/>
<path d="M0 8460 c0 -1945 1 -2050 18 -2051 77 -4 1716 0 1782 5 153 10 399
44 449 62 8 2 30 7 50 10 20 3 44 10 54 15 9 5 17 7 17 4 0 -3 16 2 36 10 20
8 46 17 58 19 47 10 168 60 282 117 122 61 277 164 368 245 26 24 53 44 59 44
6 0 8 2 5 5 -2 3 22 32 54 66 214 221 381 553 454 904 11 52 16 83 20 113 2
17 6 49 9 70 15 113 19 196 19 367 0 170 -3 233 -19 355 -11 90 -14 108 -24
155 -17 81 -18 88 -30 130 -6 22 -11 43 -11 47 0 5 -18 57 -39 117 -123 344
-325 626 -589 824 -76 56 -192 132 -203 132 -4 0 -11 3 -15 8 -7 7 -113 60
-124 62 -3 1 -25 10 -50 21 -86 39 -272 101 -364 120 -135 29 -202 40 -301 50
-27 2 -63 7 -80 11 -16 3 -447 8 -957 10 l-928 3 0 -2050z m1640 1320 c0 -3
35 -6 78 -8 42 -1 84 -4 92 -6 8 -1 38 -6 65 -11 28 -4 75 -14 105 -22 30 -8
63 -16 73 -18 30 -7 128 -44 187 -72 134 -63 277 -181 364 -300 64 -87 153
-271 143 -294 -1 -3 3 -13 10 -21 13 -16 47 -154 58 -233 3 -27 8 -63 11 -80
3 -16 7 -64 9 -105 1 -41 4 -79 5 -85 1 -5 2 -12 0 -15 -6 -16 -4 -80 3 -80 5
0 5 -4 2 -10 -3 -5 -8 -49 -11 -97 -2 -47 -7 -103 -9 -122 -3 -20 -7 -49 -9
-66 -2 -16 -7 -46 -11 -65 -3 -19 -8 -44 -10 -55 -2 -11 -4 -20 -5 -20 -1 0
-3 -8 -5 -19 -18 -96 -96 -275 -165 -376 -40 -60 -173 -202 -211 -225 -9 -5
-42 -27 -73 -47 -31 -21 -58 -38 -60 -38 -2 0 -35 -14 -72 -32 -38 -18 -75
-33 -82 -34 -8 -2 -21 -6 -30 -10 -9 -4 -21 -8 -27 -9 -5 -2 -39 -11 -75 -20
-36 -9 -78 -19 -95 -21 -16 -3 -39 -6 -50 -9 -66 -14 -224 -19 -564 -20 l-383
0 -2 103 c0 56 2 102 6 102 4 0 5 7 2 15 -9 22 -10 225 -2 225 4 0 5 6 2 14
-9 23 -10 186 -1 186 5 0 5 5 2 11 -10 15 -11 149 -2 149 5 0 5 5 1 11 -9 15
-11 189 -2 189 4 0 5 7 2 15 -9 22 -10 305 -2 305 4 0 5 7 2 15 -9 22 -10 465
-2 465 4 0 5 7 2 15 -9 22 -10 225 -2 225 4 0 5 7 2 15 -9 23 -10 385 -1 385
5 0 5 5 2 10 -8 13 -10 173 -3 186 6 9 738 13 738 4z"/>
<path d="M5699 10412 c-24 -53 -47 -98 -51 -100 -5 -2 -8 -10 -8 -18 0 -8 -23
-63 -51 -122 -28 -59 -59 -125 -69 -147 -10 -22 -37 -79 -59 -127 -23 -48 -41
-89 -41 -92 0 -2 -25 -57 -55 -122 -31 -66 -60 -128 -65 -139 -5 -11 -32 -69
-59 -129 -28 -59 -51 -110 -51 -111 0 -2 -25 -56 -55 -120 -31 -65 -65 -139
-76 -164 -11 -25 -28 -62 -37 -81 -9 -19 -17 -37 -17 -40 -1 -3 -22 -50 -48
-104 -26 -54 -47 -100 -47 -102 0 -2 -21 -48 -46 -101 -59 -126 -96 -205 -124
-268 -33 -74 -82 -180 -124 -267 -20 -42 -36 -78 -36 -81 0 -3 -22 -52 -49
-109 -81 -170 -131 -279 -131 -282 0 -5 -94 -208 -123 -265 -12 -25 -22 -47
-23 -50 -1 -6 -21 -51 -78 -174 -20 -42 -36 -82 -36 -87 0 -6 -5 -10 -12 -10
-6 0 -8 -3 -5 -6 4 -4 -2 -23 -13 -43 -10 -20 -32 -65 -48 -101 -17 -36 -44
-96 -62 -135 -18 -38 -50 -109 -71 -157 -22 -47 -46 -99 -54 -114 -8 -16 -12
-30 -10 -33 3 -2 205 -4 450 -5 l445 -1 25 53 c14 29 25 55 25 57 0 4 24 59
66 152 8 17 14 33 14 36 0 2 12 31 27 63 15 33 28 61 28 64 1 3 8 21 17 40 8
19 36 84 62 145 26 60 55 127 65 150 10 22 24 56 31 75 8 19 20 44 27 55 13
20 25 20 969 21 l956 1 23 -51 c13 -28 42 -96 65 -151 23 -55 50 -118 60 -140
10 -22 32 -74 50 -115 18 -41 41 -94 51 -117 11 -23 19 -44 19 -47 0 -2 13
-33 29 -68 26 -58 42 -96 46 -108 13 -42 52 -110 64 -111 66 -4 862 -1 866 3
3 3 -8 31 -24 64 -16 32 -36 75 -44 94 -9 19 -34 76 -57 125 -23 50 -51 110
-62 135 -11 25 -35 77 -53 115 -18 39 -42 93 -55 120 -12 28 -35 76 -51 108
-16 32 -29 65 -29 73 0 8 -4 14 -10 14 -5 0 -10 4 -10 10 0 11 -75 181 -120
272 -16 31 -26 59 -22 62 3 3 0 6 -7 6 -7 0 -9 5 -6 10 3 6 1 10 -4 10 -6 0
-11 7 -11 16 0 9 -7 28 -15 42 -13 24 -49 101 -115 247 -26 57 -66 145 -111
243 -17 37 -43 92 -57 122 -13 30 -44 97 -68 148 -24 52 -44 95 -44 97 0 2
-25 56 -55 120 -30 63 -55 117 -55 119 0 2 -25 56 -55 121 -30 64 -55 118 -55
120 0 2 -27 60 -60 130 -33 70 -60 128 -60 130 0 2 -17 41 -39 87 -21 46 -52
112 -69 148 -16 36 -47 101 -67 145 -51 110 -78 169 -80 175 -2 8 -30 69 -71
155 -21 44 -38 82 -39 85 -1 3 -12 28 -24 55 -13 28 -44 93 -68 145 -24 52
-58 125 -75 162 l-31 67 -362 0 -362 0 -44 -97z m464 -974 c14 -32 24 -58 22
-58 -3 0 4 -17 14 -37 11 -21 47 -103 81 -183 35 -80 70 -163 80 -185 10 -22
39 -89 64 -150 26 -60 53 -123 61 -140 8 -16 38 -84 66 -150 70 -164 72 -169
73 -175 1 -3 14 -31 29 -64 15 -32 27 -61 27 -63 0 -3 14 -34 30 -70 17 -35
30 -66 30 -67 0 -2 7 -20 15 -40 8 -20 15 -39 15 -43 0 -5 -295 -8 -655 -9
l-655 0 6 20 c3 12 16 44 29 71 13 28 25 57 27 65 2 8 5 17 8 20 3 3 16 32 29
65 14 33 38 89 54 125 17 36 30 71 30 78 0 6 3 12 7 12 5 0 32 61 35 80 0 3 8
21 17 40 65 142 138 317 138 329 0 6 5 11 10 11 6 0 10 7 10 15 0 9 14 46 32
83 17 37 33 72 34 77 1 6 10 28 20 50 10 22 17 43 16 48 -1 4 3 7 8 7 6 0 10
6 10 13 0 10 64 165 100 242 5 11 14 33 20 49 10 28 11 28 24 10 7 -10 25 -45
39 -76z"/>
<path d="M1078 5156 c-1 -2 -28 -6 -58 -9 -64 -7 -115 -15 -147 -22 -13 -3
-31 -7 -41 -9 -74 -17 -204 -65 -275 -103 -15 -8 -38 -20 -50 -26 -89 -48
-220 -160 -287 -247 -38 -48 -97 -162 -119 -227 -17 -52 -23 -77 -37 -173 -10
-66 2 -305 16 -305 2 0 5 -14 14 -52 23 -103 120 -235 235 -321 20 -15 38 -29
41 -32 16 -16 167 -93 220 -113 25 -9 59 -22 75 -28 30 -12 44 -17 68 -22 6
-1 18 -6 25 -10 6 -5 12 -6 12 -3 0 3 21 -3 48 -13 26 -10 52 -19 57 -19 6 -1
30 -6 55 -12 25 -6 54 -12 65 -15 11 -2 54 -11 95 -20 41 -10 91 -21 110 -25
19 -4 53 -12 75 -18 22 -6 42 -11 45 -12 3 0 43 -13 90 -28 173 -59 270 -125
305 -209 20 -47 16 -163 -8 -208 -46 -88 -166 -169 -280 -189 -15 -3 -36 -7
-46 -11 -11 -3 -48 -8 -83 -10 -35 -2 -63 -4 -63 -5 0 -5 -88 -4 -123 1 -23 3
-45 2 -48 -3 -3 -4 -10 -5 -16 -2 -6 4 -36 8 -67 10 -31 3 -78 9 -106 14 -27
5 -62 11 -76 14 -40 7 -182 47 -202 58 -10 5 -26 11 -35 13 -39 7 -260 121
-325 167 -16 11 -30 19 -32 17 -1 -2 -24 -51 -49 -109 -26 -58 -55 -123 -66
-145 -80 -171 -90 -197 -77 -209 58 -58 333 -203 418 -220 8 -2 21 -6 29 -9
20 -8 118 -35 150 -41 41 -8 71 -15 88 -20 9 -3 37 -8 62 -10 25 -3 61 -8 80
-11 90 -16 392 -25 448 -14 18 4 32 3 32 -3 0 -5 6 -6 12 -1 7 4 26 8 43 9 34
3 102 11 155 20 68 10 219 55 292 85 136 58 238 127 335 228 48 51 124 165
122 185 0 5 4 12 9 15 9 6 46 114 56 166 18 90 23 223 11 305 -25 181 -144
360 -306 463 -71 44 -189 109 -189 102 0 -2 -16 4 -36 15 -19 11 -43 21 -52
23 -9 1 -21 5 -27 9 -37 22 -245 80 -495 138 -195 44 -342 88 -348 102 -2 5
-10 8 -18 8 -37 0 -146 85 -170 133 -22 41 -28 72 -27 143 0 139 92 247 261
308 41 14 78 24 83 20 5 -3 9 -2 9 3 0 16 261 23 360 10 206 -27 418 -108 596
-228 40 -27 77 -49 81 -49 4 0 17 21 27 48 11 26 35 81 54 122 18 41 40 89 47
105 7 17 27 60 44 98 17 37 31 72 31 76 0 13 -119 101 -177 131 -26 14 -51 29
-54 33 -3 5 -9 8 -12 8 -4 0 -28 9 -54 20 -48 21 -185 68 -213 74 -8 2 -42 11
-75 19 -33 9 -76 19 -95 22 -19 3 -46 7 -60 10 -14 3 -43 7 -65 10 -49 5 -392
14 -397 10z"/>
<path d="M11199 5156 c-2 -2 -33 -6 -69 -9 -61 -6 -80 -9 -140 -22 -14 -4 -36
-8 -49 -11 -13 -3 -48 -13 -78 -24 -29 -10 -53 -17 -53 -15 0 2 -31 -12 -70
-31 -38 -18 -72 -34 -76 -34 -10 0 -148 -92 -156 -104 -4 -6 -8 -7 -8 -3 0 8
-108 -99 -157 -154 -45 -53 -123 -210 -139 -283 -21 -91 -25 -128 -26 -211 -2
-97 9 -188 31 -265 26 -91 74 -171 146 -244 62 -63 181 -156 200 -156 4 0 20
-9 36 -21 16 -11 29 -18 29 -15 0 3 21 -6 48 -19 26 -13 76 -33 112 -45 36
-12 72 -24 80 -27 8 -3 24 -8 35 -10 11 -2 31 -7 45 -13 22 -8 86 -26 132 -36
10 -2 28 -6 41 -9 12 -3 51 -12 87 -20 36 -7 74 -16 85 -18 11 -3 49 -12 85
-21 174 -41 339 -110 403 -169 133 -123 85 -342 -96 -434 -172 -87 -480 -99
-792 -32 -154 33 -402 141 -522 227 -31 22 -53 23 -53 2 0 -5 -18 -48 -40 -95
-22 -47 -40 -88 -40 -90 0 -2 -16 -38 -36 -82 -20 -43 -45 -98 -56 -122 l-19
-44 38 -33 c21 -19 41 -34 45 -34 4 0 31 -15 60 -33 63 -39 123 -68 198 -98
86 -33 224 -76 261 -82 19 -2 52 -9 74 -15 22 -6 60 -13 85 -17 25 -3 63 -8
85 -12 22 -3 58 -6 80 -7 22 -1 45 -4 50 -6 22 -12 431 1 474 15 9 2 41 7 71
10 30 4 58 9 62 11 5 3 21 8 36 10 36 7 119 32 177 55 17 7 32 13 35 14 6 1
94 46 131 67 48 25 92 62 164 133 80 80 98 102 127 153 11 21 25 43 30 50 6 6
7 12 3 12 -4 0 -3 6 2 13 13 15 49 121 58 167 14 76 13 275 -1 345 -25 114
-85 226 -169 310 -64 63 -236 184 -271 189 -6 1 -19 8 -28 15 -9 7 -16 11 -16
7 0 -4 -17 2 -38 13 -36 19 -236 89 -272 96 -9 2 -48 12 -86 23 -38 11 -82 23
-99 26 -63 13 -83 17 -170 37 -49 12 -128 33 -175 46 -47 14 -85 25 -85 24 0
-1 -33 15 -73 37 -136 71 -184 144 -177 268 5 93 24 141 78 196 59 61 170 120
252 134 11 2 38 7 60 11 50 9 277 9 328 0 20 -4 54 -10 75 -13 20 -3 55 -10
77 -16 22 -6 45 -12 50 -14 106 -24 429 -189 443 -225 10 -25 34 -2 62 57 16
36 30 67 30 69 0 2 20 48 45 101 25 53 45 99 45 103 0 3 9 24 21 45 34 64 33
71 -26 115 -30 23 -59 41 -65 41 -5 0 -10 4 -10 8 0 10 -190 105 -245 122 -22
7 -44 16 -50 20 -5 4 -21 10 -35 12 -14 3 -61 15 -105 26 -44 12 -93 24 -110
26 -16 3 -48 8 -70 12 -22 3 -51 8 -65 10 -32 6 -386 14 -391 10z"/>
<path d="M2529 5120 c-1 -3 -2 -117 -3 -254 -1 -269 1 -282 49 -270 37 9 81
11 101 3 11 -3 31 -3 45 1 15 4 32 4 39 0 7 -5 23 -5 34 -1 12 4 39 4 61 1 22
-3 55 -2 73 1 17 4 32 3 32 -1 0 -5 12 -5 28 -1 15 5 37 4 50 0 12 -5 22 -4
22 0 0 5 16 5 34 1 19 -4 37 -6 40 -3 2 2 26 4 53 4 26 -1 57 -1 68 -1 11 0
52 -1 90 -1 39 -1 77 -1 85 -1 13 0 15 -140 14 -1203 l0 -1202 322 -1 c237 0
323 3 326 11 2 7 3 549 3 1205 l-1 1192 31 1 c16 1 41 1 55 0 14 -1 32 -1 40
-1 105 0 155 -2 159 -5 2 -3 10 0 17 6 8 7 14 7 19 -1 4 -6 12 -7 24 -1 9 5
23 6 30 1 8 -4 25 -5 40 -1 14 3 40 5 56 4 17 -2 44 -3 60 -2 17 0 37 0 45 -1
8 0 24 0 35 0 28 2 34 2 97 0 31 -1 61 1 67 5 6 3 11 2 11 -4 0 -6 11 -6 28
-1 16 4 36 4 45 -1 9 -6 18 -5 22 0 3 6 12 8 20 4 16 -6 16 -10 16 330 0 98
-3 182 -7 188 -4 7 -10 6 -18 0 -7 -6 -16 -8 -20 -4 -10 10 -226 10 -226 -1 0
-5 -5 -4 -12 1 -8 5 -159 8 -358 6 -190 -1 -349 -2 -355 -2 -5 -1 -59 0 -118
2 -60 1 -111 -1 -114 -6 -2 -4 -10 -4 -16 0 -16 10 -707 10 -707 0 0 -5 -5 -5
-12 -1 -17 11 -228 11 -228 1 0 -4 -6 -5 -12 -1 -14 9 -277 12 -279 4z"/>
<path d="M5990 5115 c-15 -19 -79 -165 -72 -165 4 0 2 -4 -3 -8 -6 -4 -39 -70
-74 -147 -59 -129 -85 -186 -161 -350 -15 -33 -40 -87 -55 -120 -15 -33 -39
-85 -53 -115 -15 -30 -27 -57 -27 -60 -1 -3 -15 -34 -32 -70 -17 -36 -41 -87
-53 -115 -12 -27 -36 -79 -53 -115 -17 -36 -31 -67 -32 -70 -1 -3 -13 -29 -28
-59 -15 -30 -27 -61 -27 -68 0 -7 -4 -13 -10 -13 -5 0 -10 -7 -10 -16 0 -9 -7
-28 -15 -42 -8 -15 -30 -63 -50 -107 -20 -44 -45 -98 -55 -120 -11 -22 -24
-51 -30 -65 -5 -14 -14 -32 -19 -40 -9 -17 -29 -59 -62 -135 -12 -27 -38 -86
-59 -130 -66 -139 -120 -257 -120 -260 0 -2 -22 -51 -50 -110 -27 -59 -50
-108 -50 -110 0 -1 -25 -56 -56 -121 -74 -160 -84 -181 -84 -187 0 -3 144 -5
320 -5 l321 0 19 42 c10 22 39 91 65 151 26 61 55 128 65 150 15 35 30 70 35
85 2 7 19 44 50 115 14 33 31 71 37 85 l11 25 656 -2 c774 -2 721 -1 721 -12
0 -5 14 -40 31 -78 16 -37 34 -77 39 -88 4 -11 17 -41 29 -67 12 -26 21 -50
21 -52 0 -2 12 -30 27 -62 15 -33 27 -61 28 -64 1 -3 8 -21 17 -40 8 -19 30
-69 48 -111 l32 -77 314 0 c173 0 314 4 314 8 0 15 -24 65 -35 72 -5 4 -7 8
-3 8 3 0 -8 30 -26 67 -18 38 -41 86 -51 108 -36 79 -73 161 -106 230 -18 39
-33 72 -34 75 -8 24 -104 232 -115 250 -6 8 -13 22 -16 30 -16 41 -91 207
-170 375 -15 33 -28 62 -29 65 0 3 -13 31 -28 63 -15 31 -39 83 -53 115 -15
31 -49 104 -75 161 -27 57 -49 105 -49 106 0 2 -16 39 -36 82 -20 43 -50 107
-66 143 -17 36 -43 92 -58 125 -37 79 -87 188 -115 250 -12 28 -37 82 -55 120
-72 157 -85 186 -147 320 -35 77 -68 144 -73 149 -13 13 -381 15 -397 3 -7 -5
-13 -6 -13 -1 0 12 -100 11 -110 -1z m287 -722 c13 -31 35 -85 38 -93 1 -3 13
-31 28 -64 15 -32 27 -60 27 -62 0 -2 11 -27 24 -56 13 -29 43 -98 66 -153 23
-55 50 -118 60 -140 40 -90 53 -121 56 -133 1 -7 9 -24 18 -37 9 -13 16 -29
16 -34 0 -6 11 -34 24 -63 57 -127 96 -217 96 -223 0 -1 -211 -2 -470 -2 -258
0 -470 2 -470 3 0 4 19 51 43 104 45 102 51 115 52 120 1 3 9 22 18 44 9 21
17 40 17 42 0 2 13 32 29 66 15 35 45 104 66 153 20 50 41 97 46 105 5 8 12
22 15 30 8 20 83 199 94 225 40 90 50 115 50 124 0 6 5 11 10 11 6 0 9 3 8 8
-3 11 13 52 20 52 4 0 12 -12 19 -27z"/>
<path d="M7499 5120 c-1 -3 -3 -119 -4 -258 -1 -229 0 -254 15 -262 10 -5 20
-7 23 -4 6 6 75 7 132 1 17 -1 45 1 63 4 17 4 32 3 32 -1 0 -5 12 -5 28 -1 15
5 37 4 50 0 12 -5 22 -4 22 0 0 5 16 5 34 1 19 -4 37 -6 40 -3 2 2 26 4 53 4
72 -1 82 -1 158 -2 38 0 71 -2 74 -4 2 -3 10 0 17 6 8 7 14 7 19 -1 4 -6 12
-7 24 -1 9 5 23 6 30 1 8 -4 25 -5 40 -1 51 14 61 5 61 -57 1 -31 1 -573 1
-1204 l1 -1146 325 1 326 2 0 1207 c0 713 3 1205 9 1202 13 -8 113 -8 126 0 6
3 13 2 17 -4 4 -6 12 -7 24 -1 9 5 23 6 30 1 8 -4 25 -5 40 -1 14 3 40 5 56 4
17 -2 44 -3 60 -2 17 0 37 0 45 -1 8 0 24 0 35 0 28 2 34 2 97 0 31 -1 61 1
67 5 6 3 11 2 11 -4 0 -6 11 -7 28 -2 15 5 37 4 50 0 12 -5 22 -4 22 0 0 5 16
5 34 1 19 -4 37 -5 40 -3 3 3 29 5 57 4 29 0 57 3 63 8 8 7 9 87 6 263 l-5
253 -257 0 c-142 0 -258 -4 -258 -8 0 -5 -5 -5 -12 -1 -17 11 -228 11 -228 0
0 -5 -5 -4 -12 1 -8 5 -159 8 -358 6 -190 -1 -349 -2 -355 -2 -5 -1 -59 0
-118 2 -60 1 -111 -1 -114 -6 -2 -4 -10 -4 -16 0 -13 8 -746 11 -748 3z"/>
</g>
</svg>
