<svg width="96" height="14" viewBox="0 0 96 14" fill="none" xmlns="http://www.w3.org/2000/svg">
<path d="M0 0.162H4.95C6.354 0.162 7.56 0.414 8.568 0.918C9.576 1.422 10.344 2.154 10.872 3.114C11.412 4.074 11.682 5.22 11.682 6.552C11.682 7.896 11.418 9.048 10.89 10.008C10.362 10.968 9.594 11.706 8.586 12.222C7.578 12.726 6.366 12.978 4.95 12.978H0V0.162ZM4.77 10.71C7.506 10.71 8.874 9.324 8.874 6.552C8.874 3.804 7.506 2.43 4.77 2.43H2.808V10.71H4.77Z" fill="#FF00DA"/>
<path d="M22.1032 10.134H16.1092L14.8852 12.978H12.0592L17.9452 0.162H20.2132L26.0992 12.978H23.3272L22.1032 10.134ZM21.1852 7.992L19.1152 3.186L17.0452 7.992H21.1852Z" fill="#FF00DA"/>
<path d="M32.7278 13.14C31.4558 13.14 30.3458 12.876 29.3978 12.348C28.4618 11.808 27.7358 11.04 27.2198 10.044C26.7158 9.048 26.4638 7.884 26.4638 6.552C26.4638 5.22 26.7158 4.062 27.2198 3.078C27.7358 2.094 28.4618 1.338 29.3978 0.809999C30.3458 0.27 31.4558 0 32.7278 0C33.9998 0 35.1038 0.27 36.0398 0.809999C36.9758 1.338 37.6958 2.094 38.1998 3.078C38.7038 4.062 38.9558 5.22 38.9558 6.552C38.9558 7.884 38.7038 9.048 38.1998 10.044C37.6958 11.04 36.9758 11.808 36.0398 12.348C35.1038 12.876 33.9998 13.14 32.7278 13.14ZM32.7278 10.944C33.8078 10.944 34.6478 10.566 35.2478 9.81C35.8598 9.054 36.1658 7.968 36.1658 6.552C36.1658 5.136 35.8598 4.056 35.2478 3.312C34.6478 2.568 33.8078 2.196 32.7278 2.196C31.6478 2.196 30.8018 2.568 30.1898 3.312C29.5898 4.056 29.2898 5.136 29.2898 6.552C29.2898 7.98 29.5898 9.072 30.1898 9.828C30.8018 10.572 31.6478 10.944 32.7278 10.944Z" fill="#FF00DA"/>
<path d="M45.6324 13.14C44.6604 13.14 43.7244 13.014 42.8244 12.762C41.9364 12.498 41.1984 12.132 40.6104 11.664L41.5104 9.648C42.7464 10.512 44.1264 10.944 45.6504 10.944C46.4664 10.944 47.0904 10.818 47.5224 10.566C47.9664 10.302 48.1884 9.936 48.1884 9.468C48.1884 9.06 47.9844 8.742 47.5764 8.514C47.1804 8.274 46.4784 8.046 45.4704 7.83C44.3424 7.602 43.4424 7.326 42.7704 7.002C42.1104 6.666 41.6244 6.264 41.3124 5.796C41.0124 5.316 40.8624 4.722 40.8624 4.014C40.8624 3.246 41.0724 2.556 41.4924 1.944C41.9244 1.332 42.5244 0.858 43.2924 0.522C44.0604 0.174 44.9484 0 45.9564 0C46.8684 0 47.7444 0.131999 48.5844 0.395999C49.4244 0.659999 50.0964 1.02 50.6004 1.476L49.7004 3.492C48.5724 2.628 47.3304 2.196 45.9744 2.196C45.2544 2.196 44.6784 2.34 44.2464 2.628C43.8144 2.916 43.5984 3.306 43.5984 3.798C43.5984 4.086 43.6764 4.326 43.8324 4.518C44.0004 4.71 44.2764 4.884 44.6604 5.04C45.0444 5.184 45.5904 5.328 46.2984 5.472C47.9424 5.832 49.1244 6.3 49.8444 6.876C50.5764 7.452 50.9424 8.238 50.9424 9.234C50.9424 10.434 50.4744 11.388 49.5384 12.096C48.6024 12.792 47.3004 13.14 45.6324 13.14Z" fill="#FF00DA"/>
<path d="M55.6688 2.448H51.6548V0.162H62.5268V2.448H58.5128V12.978H55.6688V2.448Z" fill="#FF00DA"/>
<path d="M70.9703 10.134H64.9763L63.7523 12.978H60.9263L66.8123 0.162H69.0803L74.9663 12.978H72.1943L70.9703 10.134ZM70.0523 7.992L67.9823 3.186L65.9123 7.992H70.0523Z" fill="#FF00DA"/>
<path d="M77.3954 2.448H73.3814V0.162H84.2534V2.448H80.2394V12.978H77.3954V2.448Z" fill="#FF00DA"/>
<path d="M89.8765 13.14C88.9045 13.14 87.9685 13.014 87.0685 12.762C86.1805 12.498 85.4425 12.132 84.8545 11.664L85.7545 9.648C86.9905 10.512 88.3705 10.944 89.8945 10.944C90.7105 10.944 91.3345 10.818 91.7665 10.566C92.2105 10.302 92.4325 9.936 92.4325 9.468C92.4325 9.06 92.2285 8.742 91.8205 8.514C91.4245 8.274 90.7225 8.046 89.7145 7.83C88.5865 7.602 87.6865 7.326 87.0145 7.002C86.3545 6.666 85.8685 6.264 85.5565 5.796C85.2565 5.316 85.1065 4.722 85.1065 4.014C85.1065 3.246 85.3165 2.556 85.7365 1.944C86.1685 1.332 86.7685 0.858 87.5365 0.522C88.3045 0.174 89.1925 0 90.2005 0C91.1125 0 91.9885 0.131999 92.8285 0.395999C93.6685 0.659999 94.3405 1.02 94.8445 1.476L93.9445 3.492C92.8165 2.628 91.5745 2.196 90.2185 2.196C89.4985 2.196 88.9225 2.34 88.4905 2.628C88.0585 2.916 87.8425 3.306 87.8425 3.798C87.8425 4.086 87.9205 4.326 88.0765 4.518C88.2445 4.71 88.5205 4.884 88.9045 5.04C89.2885 5.184 89.8345 5.328 90.5425 5.472C92.1865 5.832 93.3685 6.3 94.0885 6.876C94.8205 7.452 95.1865 8.238 95.1865 9.234C95.1865 10.434 94.7185 11.388 93.7825 12.096C92.8465 12.792 91.5445 13.14 89.8765 13.14Z" fill="#FF00DA"/>
</svg>
