<svg width="445" height="178" viewBox="0 0 445 178" fill="none" xmlns="http://www.w3.org/2000/svg">
<path d="M139.169 133.806H141.169V131.806V102.962V100.962H139.169H121.236V7.28309V5.28309H119.236H79.6042H78.5701L77.9723 6.12686L3.86809 110.717L3.5 111.236V111.873V131.806V133.806H5.5H80.4183V169.093V171.093H82.4183H119.236H121.236V169.093V133.806H139.169ZM74.2196 64.4596C76.1957 61.5715 78.2624 58.3044 80.4183 54.7251V100.962H48.3012L74.1997 64.4882L74.2098 64.474L74.2196 64.4596ZM440.089 133.806H442.089V131.806V102.962V100.962H440.089H422.156V7.28309V5.28309H420.156H380.524H379.49L378.892 6.12686L304.788 110.717L304.42 111.236V111.873V131.806V133.806H306.42H381.338V169.093V171.093H383.338H420.156H422.156V169.093V133.806H440.089ZM375.14 64.4596C377.116 61.5715 379.182 58.3044 381.338 54.7252V100.962H349.221L375.12 64.4882L375.13 64.474L375.14 64.4596ZM222.56 2C198.836 2 181.986 10.1235 171.16 25.2304C160.426 40.2093 155.836 61.7551 155.836 88.188C155.836 114.39 160.428 135.932 171.158 150.967C181.979 166.128 198.826 174.376 222.56 174.376C246.18 174.376 263.024 166.126 273.872 150.969C284.632 135.936 289.284 114.394 289.284 88.188C289.284 61.7507 284.633 40.2057 273.87 25.2283C263.017 10.1253 246.17 2 222.56 2ZM222.56 143.173C218.492 143.173 215.07 142.216 212.187 140.281C209.294 138.339 206.801 135.316 204.761 130.958C200.646 122.169 198.53 108.293 198.53 88.188C198.53 67.8443 200.647 53.9725 204.759 45.2462C206.796 40.9222 209.285 37.945 212.174 36.0379C215.056 34.1364 218.481 33.2028 222.56 33.2028C226.639 33.2028 230.064 34.1364 232.946 36.0379C235.835 37.945 238.324 40.9222 240.361 45.2462C244.473 53.9725 246.59 67.8443 246.59 88.188C246.59 108.293 244.474 122.169 240.359 130.958C238.319 135.316 235.826 138.339 232.933 140.281C230.05 142.216 226.628 143.173 222.56 143.173Z" fill="white" fill-opacity="0.03" stroke="#00B4D8" stroke-width="4"/>
</svg>