<svg width="40" height="40" viewBox="0 0 40 40" fill="none" xmlns="http://www.w3.org/2000/svg">
<path d="M19.4306 34.233L18.6555 33.9747V30.3576L19.4306 29.8408L20.2048 30.0998L20.2057 30.0992V30.8743L19.4306 34.233Z" fill="url(#paint0_linear_979_187821)"/>
<path d="M18.6555 30.3576L19.4306 30.6159M18.6555 30.3576V33.9747L19.4306 34.233M18.6555 30.3576L19.4306 29.8408L20.2048 30.0998M19.4306 30.6159V34.233M19.4306 30.6159L20.2048 30.0998M19.4306 34.233L20.2057 30.8743V30.0992L20.2048 30.0998" stroke="url(#paint1_linear_979_187821)" stroke-width="0.0273106"/>
<path d="M18.9275 30.6294H19.1585V36.2777L18.9275 36.1622V30.6294Z" fill="url(#paint2_linear_979_187821)" stroke="url(#paint3_linear_979_187821)" stroke-width="0.0273106"/>
<path d="M17.8806 20.5395L18.6557 19.2477L20.7226 18.731L21.4977 18.9893L22.0145 19.7644V20.7979L21.2394 23.6399L20.981 25.7068L20.7226 25.9652V29.8407L19.1724 30.8742L18.3973 30.6158V28.0321L18.139 27.7738V21.8314L17.8806 21.573V20.5395Z" fill="url(#paint4_linear_979_187821)"/>
<path d="M17.8806 20.5395L18.6557 20.7979M17.8806 20.5395L18.6557 19.2477M17.8806 20.5395V21.573M18.6557 20.7979L19.4308 19.5061M18.6557 20.7979V21.8314M19.4308 19.5061L18.6557 19.2477M19.4308 19.5061L21.4977 18.9893M18.6557 19.2477L20.7226 18.731L21.4977 18.9893M21.4977 18.9893L22.0145 19.7644V20.7979L21.2394 23.6399L20.981 25.7068L20.7226 25.9652V29.8407L19.1724 30.8742M17.8806 21.573L18.139 21.8314M17.8806 21.573L18.6557 21.8314M18.139 21.8314V27.7738M18.139 21.8314L18.9141 22.0897M18.139 27.7738L18.3973 28.0321M18.139 27.7738L18.3973 27.8599M18.3973 28.0321L19.1724 28.2905M18.3973 28.0321V30.6158L19.1724 30.8742M18.6557 21.8314L18.9141 22.0897M18.9141 22.0897V28.0321M18.9141 28.0321L19.1724 28.2905M18.9141 28.0321L18.6557 27.946M19.1724 28.2905V30.8742M19.6892 28.2905L19.4308 28.0321V22.0897L19.1724 21.8314V20.7979L19.6892 19.7644M19.6892 28.2905V30.0991L20.2059 29.7546M19.6892 28.2905V19.7644M20.4643 25.6867V29.5823L20.2059 29.7546M20.4643 25.6867L20.7226 25.4485L20.9754 23.6795M20.4643 25.6867L20.2059 25.836V29.7546M21.7561 20.7979L20.981 23.6399L20.9754 23.6795M21.7561 20.7979V19.7644M21.7561 20.7979L20.9788 21.0563M21.7561 19.7644L21.4977 19.2477L20.981 19.3953M21.7561 19.7644L20.9802 20.0228M19.6892 19.7644L20.981 19.3953M18.6557 27.946V22.4248L18.3973 22.3481V27.8599M18.6557 27.946L18.3973 27.8599M20.981 19.3953L20.9802 20.0228M20.9754 23.6795L20.9788 21.0563M20.9802 20.0228L20.9788 21.0563" stroke="url(#paint5_linear_979_187821)" stroke-width="0.0273106"/>
<path d="M19.1724 21.8315V20.798L19.6891 19.7645L20.9809 19.3954L21.4977 19.2478L21.756 19.7645V20.798L20.9809 23.64L20.9753 23.6796L20.7226 25.4486L20.4642 25.6868V29.5824L20.2058 29.7547L19.6891 30.0992V28.2906L19.4307 28.0323V22.0898L19.1724 21.8315Z" fill="url(#paint6_linear_979_187821)"/>
<path d="M19.6891 28.2906L19.4307 28.0323V22.0898L19.1724 21.8315V20.798L19.6891 19.7645M19.6891 28.2906V30.0992L20.2058 29.7547M19.6891 28.2906V19.7645M20.4642 25.6868V29.5824L20.2058 29.7547M20.4642 25.6868L20.7226 25.4486L20.9753 23.6796M20.4642 25.6868L20.2058 25.8361V29.7547M21.756 20.798L20.9809 23.64L20.9753 23.6796M21.756 20.798V19.7645M21.756 20.798L20.9787 21.0564M21.756 19.7645L21.4977 19.2478L20.9809 19.3954M21.756 19.7645L20.9801 20.0229M19.6891 19.7645L20.9809 19.3954M20.9809 19.3954L20.9801 20.0229M20.9753 23.6796L20.9787 21.0564M20.9801 20.0229L20.9787 21.0564" stroke="url(#paint7_linear_979_187821)" stroke-width="0.0273106"/>
<path d="M18.6556 22.4251L18.3972 22.3484V27.8602L18.6556 27.9463V22.4251Z" fill="url(#paint8_linear_979_187821)" stroke="url(#paint9_linear_979_187821)" stroke-width="0.0273106"/>
<path d="M19.9475 19.0031C21.2328 19.0031 22.3971 18.815 23.2406 18.5104C23.6622 18.3581 24.0044 18.1765 24.2415 17.9741C24.4159 17.8252 24.5341 17.6644 24.5844 17.4951V18.0852C24.5844 18.3115 24.4574 18.529 24.2237 18.7285C23.9901 18.9279 23.6512 19.1082 23.2313 19.2598C22.3915 19.5631 21.2305 19.7509 19.9475 19.7509C18.6644 19.7509 17.5034 19.5631 16.6636 19.2598C16.2437 19.1082 15.9048 18.9279 15.6712 18.7285C15.4375 18.529 15.3105 18.3115 15.3105 18.0852V17.4951C15.3608 17.6644 15.479 17.8252 15.6535 17.9741C15.8905 18.1765 16.2327 18.3581 16.6544 18.5104C17.4978 18.815 18.6621 19.0031 19.9475 19.0031Z" fill="url(#paint10_linear_979_187821)" stroke="url(#paint11_linear_979_187821)" stroke-width="0.0273106"/>
<path d="M24.5981 17.31C24.5981 18.2375 22.5159 18.9894 19.9475 18.9894C17.379 18.9894 15.2969 18.2375 15.2969 17.31C15.2969 16.3825 17.379 15.6306 19.9475 15.6306C22.5159 15.6306 24.5981 16.3825 24.5981 17.31Z" fill="url(#paint12_linear_979_187821)"/>
<path d="M19.9474 17.4391V4.77914L19.728 4.23066L19.4307 3.4873L19.9333 3.98991L19.9474 4.00404L20.9809 6.07097V6.32933L21.2392 6.5877L21.433 6.97525L21.8851 7.87953L22.0086 16.2764L22.0143 16.664L21.2392 16.9546L20.9809 17.0515L19.9474 17.4391Z" fill="url(#paint13_linear_979_187821)"/>
<path d="M19.9474 4.77914V17.4391L20.9809 17.0515M19.9474 4.77914V4.00404M19.9474 4.77914L19.728 4.23066M19.9474 4.77914L20.2058 5.10209M19.9474 4.00404L20.9809 6.07097M19.9474 4.00404L19.9333 3.98991M20.9809 6.07097V6.32933M20.9809 6.07097L20.7742 5.8126M20.9809 17.0515L21.2392 16.9546M20.9809 17.0515V16.2764M21.2392 6.5877V6.84606M21.2392 6.5877L20.9809 6.32933M21.2392 6.5877L21.433 6.97525M21.2392 16.9546L22.0143 16.664L22.0086 16.2764M21.2392 16.9546V6.84606M21.2392 6.84606L20.9809 6.32933M20.9809 6.32933V13.3052M19.728 4.23066L19.4307 3.4873L19.9333 3.98991M19.728 4.23066L19.9333 3.98991M21.433 6.97525L21.8851 7.87953L22.0086 16.2764M21.433 6.97525V16.1472L21.6268 16.4056L22.0086 16.2764M20.2058 5.10209V16.1472L20.4641 16.4056L20.9809 16.2764M20.2058 5.10209L20.7742 5.8126M20.9809 16.2764V13.3052M20.7742 5.8126V13.0469L20.9809 13.3052" stroke="url(#paint14_linear_979_187821)" stroke-width="0.0273106"/>
<path d="M20.2058 16.1472V5.10205L20.7742 5.81256V13.0468L20.9809 13.3052V16.2764L20.4642 16.4056L20.2058 16.1472Z" fill="url(#paint15_linear_979_187821)" stroke="url(#paint16_linear_979_187821)" stroke-width="0.0273106"/>
<path d="M21.4329 6.97534L21.885 7.87962L22.0085 16.2765L21.6266 16.4057L21.4329 16.1473V6.97534Z" fill="url(#paint17_linear_979_187821)" stroke="url(#paint18_linear_979_187821)" stroke-width="0.0273106"/>
<path d="M17.6221 5.0375L18.1388 4.00404L18.7847 3.74567L19.4306 3.4873L19.7259 4.22549L19.9474 4.77914V7.62116V9.94646V17.4391L18.6555 17.9558L18.3972 17.8912L17.8804 17.762L17.6221 17.6974V5.0375Z" fill="url(#paint19_linear_979_187821)"/>
<path d="M18.1388 4.00404L17.6221 5.0375V17.6974L17.8804 17.762M18.1388 4.00404L18.6555 5.29587M18.1388 4.00404L18.7847 3.74567M18.6555 5.29587L19.1907 4.76068M18.6555 5.29587L19.4306 4.98583M18.6555 5.29587V8.1379M18.6555 17.9558L19.9474 17.4391V9.94646M18.6555 17.9558L18.3972 17.8912M18.6555 17.9558V17.4391M19.9474 4.77914L19.7259 4.22549M19.9474 4.77914L19.4306 4.98583M19.9474 4.77914V7.62116M19.7259 4.22549L19.4306 3.4873L18.7847 3.74567M19.7259 4.22549L19.1907 4.76068M17.8804 17.762V5.55423L18.1388 5.0375L18.3972 5.8126V17.8912M17.8804 17.762L18.3972 17.8912M18.7847 3.74567L19.1907 4.76068M19.4306 4.98583V13.0469L19.689 13.3052V16.9223L18.9139 17.1807M18.9139 17.1807L18.6555 17.4391M18.9139 17.1807V13.3052L18.6555 13.0469M18.6555 17.4391V13.0469M18.6555 13.0469V10.4632M18.6555 8.1379L19.9474 7.62116M18.6555 8.1379V10.4632M19.9474 7.62116V9.94646M18.6555 10.4632L19.9474 9.94646" stroke="url(#paint20_linear_979_187821)" stroke-width="0.0273106"/>
<path d="M18.6555 17.4391L18.9139 17.1807V13.3052L18.6555 13.0469V17.4391Z" fill="url(#paint21_linear_979_187821)" stroke="url(#paint22_linear_979_187821)" stroke-width="0.0273106"/>
<path d="M17.8804 5.55433V17.7621L18.3971 17.8913V5.8127L18.1387 5.0376L17.8804 5.55433Z" fill="url(#paint23_linear_979_187821)" stroke="url(#paint24_linear_979_187821)" stroke-width="0.0273106"/>
<mask id="mask0_979_187821" style="mask-type:alpha" maskUnits="userSpaceOnUse" x="15" y="3" width="10" height="34">
<path fill-rule="evenodd" clip-rule="evenodd" d="M24.5982 17.3099C24.5982 16.6487 23.54 16.0767 22.0017 15.8028L21.8852 7.87953L21.4331 6.97525L21.2393 6.5877L20.9809 6.32933V6.07097L19.9475 4.00404L19.9334 3.98991L19.4308 3.4873L18.7848 3.74567L18.1389 4.00404L17.6222 5.0375V15.8552C16.2322 16.1456 15.297 16.6883 15.297 17.3099C15.297 18.2072 17.2457 18.9401 19.6983 18.9869L19.6979 18.987C17.2455 18.9402 15.2969 18.2073 15.2969 17.31V18.0851C15.2969 18.817 16.5934 19.4396 18.4024 19.6696L17.8805 20.5394V21.5729L18.1389 21.8312V27.7737L18.3972 28.032V30.6157L18.6556 30.7018V33.9746L18.914 34.0607V36.1705L19.1724 36.2997V34.1468L19.4307 34.233L20.2058 30.8742V30.1851L20.7225 29.8406V25.9651L20.9809 25.7067L21.2393 23.6398L22.0144 20.7978V19.7643L21.9102 19.608C23.4977 19.3408 24.5981 18.7593 24.5981 18.0851V17.3212L24.5982 17.3099ZM19.9475 4.77914L19.9475 7.62116V9.94646L19.9475 15.6305V4.77914ZM23.6186 18.341C23.033 18.6125 22.2215 18.8173 21.2861 18.9187L21.2862 18.9187C22.2216 18.8174 23.033 18.6125 23.6186 18.341Z" fill="url(#paint25_linear_979_187821)"/>
<path d="M22.0017 15.8028L21.9881 15.803L21.9883 15.8143L21.9994 15.8163L22.0017 15.8028ZM24.5982 17.3099L24.6118 17.31V17.3099H24.5982ZM21.8852 7.87953L21.9004 7.87931L21.8974 7.87342L21.8852 7.87953ZM21.4331 6.97525L21.4209 6.98135L21.4331 6.97525ZM21.2393 6.5877L21.2522 6.58126L21.249 6.57804L21.2393 6.5877ZM20.9809 6.32933H20.9616L20.9713 6.33899L20.9809 6.32933ZM20.9809 6.07097H20.9962L20.9932 6.06486L20.9809 6.07097ZM19.9475 4.00404L19.9604 3.9976L19.9571 3.99438L19.9475 4.00404ZM19.9334 3.98991L19.943 3.98025V3.98025L19.9334 3.98991ZM19.4308 3.4873L19.4404 3.47765L19.434 3.47128L19.4257 3.47463L19.4308 3.4873ZM18.7848 3.74567L18.7798 3.73299V3.73299L18.7848 3.74567ZM18.1389 4.00404L18.1321 3.98707L18.1267 3.99793L18.1389 4.00404ZM17.6222 5.0375L17.6085 5.03067V5.0375H17.6222ZM17.6222 15.8552L17.625 15.8686L17.6358 15.8663V15.8552H17.6222ZM19.6983 18.9869L19.7016 19.0002L19.6985 18.9733L19.6983 18.9869ZM19.6979 18.987L19.6977 19.0011L19.7013 19.0002L19.6979 18.987ZM18.4024 19.6696L18.4141 19.6766L18.4249 19.6587L18.4041 19.656L18.4024 19.6696ZM17.8805 20.5394L17.8668 20.5312V20.5394H17.8805ZM17.8805 21.5729H17.8612L17.8708 21.5825L17.8805 21.5729ZM18.1389 21.8312H18.1582L18.1485 21.8216L18.1389 21.8312ZM18.1389 27.7737H18.1196L18.1292 27.7833L18.1389 27.7737ZM18.3972 28.032H18.4165L18.4069 28.0224L18.3972 28.032ZM18.3972 30.6157H18.3836V30.6255L18.3929 30.6287L18.3972 30.6157ZM18.6556 30.7018H18.6693V30.692L18.6599 30.6889L18.6556 30.7018ZM18.6556 33.9746H18.642V33.9844L18.6513 33.9875L18.6556 33.9746ZM18.914 34.0607H18.9277V34.0509L18.9183 34.0478L18.914 34.0607ZM18.914 36.1705H18.9004V36.1789L18.9079 36.1827L18.914 36.1705ZM19.1724 36.2997L19.1663 36.3119L19.186 36.3218V36.2997H19.1724ZM19.1724 34.1468L19.1767 34.1339L19.1587 34.1279V34.1468H19.1724ZM19.4307 34.233L19.4264 34.2459L19.4406 34.2507L19.444 34.236L19.4307 34.233ZM20.2058 30.8742L20.2195 30.8773V30.8742H20.2058ZM20.2058 30.1851L20.1922 30.1646V30.1851H20.2058ZM20.7225 29.8406L20.7362 29.8611V29.8406H20.7225ZM20.7225 25.9651L20.7089 25.9515V25.9651H20.7225ZM20.9809 25.7067L20.9931 25.719L20.9944 25.7084L20.9809 25.7067ZM21.2393 23.6398L21.226 23.6362L21.2257 23.6381L21.2393 23.6398ZM22.0144 20.7978L22.028 20.8015V20.7978H22.0144ZM22.0144 19.7643H22.0308L22.0257 19.7567L22.0144 19.7643ZM21.9102 19.608L21.9079 19.5946L21.8871 19.5981L21.8988 19.6156L21.9102 19.608ZM24.5981 17.3212L24.5844 17.3211V17.3212H24.5981ZM19.9475 7.62116H19.9338H19.9475ZM19.9475 9.94646H19.9338H19.9475ZM21.2861 18.9187L21.2846 18.9051L21.2817 18.9316L21.2861 18.9187ZM23.6186 18.341L23.6243 18.3534L23.6128 18.3287L23.6186 18.341ZM21.2862 18.9187L21.2815 18.933L21.2877 18.9323L21.2862 18.9187ZM21.9994 15.8163C22.7676 15.9531 23.415 16.1642 23.87 16.423C24.3259 16.6823 24.5845 16.9871 24.5845 17.3099H24.6118C24.6118 16.9715 24.3414 16.6597 23.8835 16.3993C23.4249 16.1383 22.7741 15.9265 22.0041 15.7894L21.9994 15.8163ZM21.8716 7.87973L21.9881 15.803L22.0154 15.8026L21.8989 7.87933L21.8716 7.87973ZM21.4209 6.98135L21.873 7.88564L21.8974 7.87342L21.4453 6.96914L21.4209 6.98135ZM21.2271 6.59381L21.4209 6.98135L21.4453 6.96914L21.2515 6.58159L21.2271 6.59381ZM20.9713 6.33899L21.2297 6.59735L21.249 6.57804L20.9906 6.31968L20.9713 6.33899ZM20.9673 6.07097V6.32933H20.9946V6.07097H20.9673ZM19.9353 4.01014L20.9687 6.07707L20.9932 6.06486L19.9597 3.99793L19.9353 4.01014ZM19.9237 3.99956L19.9378 4.01369L19.9571 3.99438L19.943 3.98025L19.9237 3.99956ZM19.4211 3.49696L19.9237 3.99956L19.943 3.98025L19.4404 3.47765L19.4211 3.49696ZM18.7899 3.75835L19.4358 3.49998L19.4257 3.47463L18.7798 3.73299L18.7899 3.75835ZM18.144 4.01672L18.7899 3.75835L18.7798 3.73299L18.1338 3.99136L18.144 4.01672ZM17.6344 5.04361L18.1511 4.01014L18.1267 3.99793L17.61 5.03139L17.6344 5.04361ZM17.6358 15.8552V5.0375H17.6085V15.8552H17.6358ZM15.3106 17.3099C15.3106 17.0065 15.5391 16.7189 15.9455 16.47C16.3512 16.2214 16.9308 16.0136 17.625 15.8686L17.6194 15.8419C16.9235 15.9872 16.3406 16.1959 15.9312 16.4467C15.5225 16.6971 15.2833 16.9918 15.2833 17.3099H15.3106ZM19.6985 18.9733C18.4734 18.9499 17.3747 18.7551 16.5828 18.4546C16.1868 18.3043 15.8682 18.1278 15.6488 17.9337C15.4295 17.7395 15.3106 17.5289 15.3106 17.3099H15.2833C15.2833 17.5396 15.4081 17.757 15.6307 17.9541C15.8534 18.1512 16.1753 18.3292 16.5731 18.4801C17.3687 18.7821 18.4706 18.9772 19.698 19.0006L19.6985 18.9733ZM19.7013 19.0002L19.7016 19.0002L19.695 18.9737L19.6946 18.9738L19.7013 19.0002ZM15.2832 17.31C15.2832 17.5396 15.408 17.7571 15.6306 17.9542C15.8533 18.1513 16.1752 18.3292 16.5729 18.4802C17.3685 18.7821 18.4704 18.9772 19.6977 19.0007L19.6982 18.9733C18.4731 18.95 17.3745 18.7552 16.5826 18.4546C16.1866 18.3044 15.868 18.1279 15.6487 17.9338C15.4294 17.7396 15.3105 17.529 15.3105 17.31H15.2832ZM15.3105 18.0851V17.31H15.2832V18.0851H15.3105ZM18.4041 19.656C17.5006 19.5411 16.7258 19.3283 16.1774 19.0533C15.9032 18.9158 15.6861 18.7631 15.5378 18.5999C15.3896 18.4368 15.3105 18.2638 15.3105 18.0851H15.2832C15.2832 18.2724 15.3662 18.4517 15.5176 18.6183C15.6689 18.7848 15.8891 18.9394 16.1652 19.0777C16.7173 19.3545 17.4953 19.568 18.4007 19.6831L18.4041 19.656ZM17.8922 20.5464L18.4141 19.6766L18.3907 19.6625L17.8688 20.5324L17.8922 20.5464ZM17.8942 21.5729V20.5394H17.8668V21.5729H17.8942ZM18.1485 21.8216L17.8902 21.5632L17.8708 21.5825L18.1292 21.8409L18.1485 21.8216ZM18.1525 27.7737V21.8312H18.1252V27.7737H18.1525ZM18.4069 28.0224L18.1485 27.764L18.1292 27.7833L18.3876 28.0417L18.4069 28.0224ZM18.4109 30.6157V28.032H18.3836V30.6157H18.4109ZM18.6599 30.6889L18.4016 30.6027L18.3929 30.6287L18.6513 30.7148L18.6599 30.6889ZM18.6693 33.9746V30.7018H18.642V33.9746H18.6693ZM18.9183 34.0478L18.6599 33.9616L18.6513 33.9875L18.9097 34.0737L18.9183 34.0478ZM18.9277 36.1705V34.0607H18.9004V36.1705H18.9277ZM19.1785 36.2875L18.9201 36.1583L18.9079 36.1827L19.1663 36.3119L19.1785 36.2875ZM19.1587 34.1468V36.2997H19.186V34.1468H19.1587ZM19.435 34.22L19.1767 34.1339L19.1681 34.1598L19.4264 34.2459L19.435 34.22ZM20.1925 30.8711L19.4174 34.2299L19.444 34.236L20.2191 30.8773L20.1925 30.8711ZM20.1922 30.1851V30.8742H20.2195V30.1851H20.1922ZM20.715 29.8292L20.1982 30.1737L20.2134 30.1964L20.7301 29.852L20.715 29.8292ZM20.7089 25.9651V29.8406H20.7362V25.9651H20.7089ZM20.9712 25.6971L20.7129 25.9555L20.7322 25.9748L20.9906 25.7164L20.9712 25.6971ZM21.2257 23.6381L20.9673 25.705L20.9944 25.7084L21.2528 23.6415L21.2257 23.6381ZM22.0012 20.7942L21.2261 23.6362L21.2524 23.6434L22.0275 20.8014L22.0012 20.7942ZM22.0007 19.7643V20.7978H22.028V19.7643H22.0007ZM21.8988 19.6156L22.003 19.7719L22.0257 19.7567L21.9215 19.6005L21.8988 19.6156ZM24.5844 18.0851C24.5844 18.4143 24.3154 18.7247 23.8428 18.9872C23.3711 19.2493 22.7008 19.4611 21.9079 19.5946L21.9124 19.6215C22.7071 19.4877 23.3807 19.2752 23.8561 19.0111C24.3305 18.7476 24.6117 18.4301 24.6117 18.0851H24.5844ZM24.5844 17.3212V18.0851H24.6117V17.3212H24.5844ZM24.5845 17.3098L24.5844 17.3211L24.6117 17.3213L24.6118 17.31L24.5845 17.3098ZM19.9611 7.62116L19.9611 4.77914H19.9338L19.9338 7.62116H19.9611ZM19.9611 9.94646V7.62116H19.9338V9.94646H19.9611ZM19.9611 15.6305L19.9611 9.94646H19.9338L19.9338 15.6305H19.9611ZM19.9338 4.77914V15.6305H19.9611V4.77914H19.9338ZM21.2875 18.9323C22.2239 18.8308 23.0369 18.6257 23.6243 18.3534L23.6128 18.3287C23.029 18.5993 22.2191 18.8039 21.2846 18.9051L21.2875 18.9323ZM21.2906 18.9058L21.2904 18.9057L21.2817 18.9316L21.2819 18.9317L21.2906 18.9058ZM23.6128 18.3287C23.029 18.5993 22.2192 18.8039 21.2848 18.9052L21.2877 18.9323C22.224 18.8309 23.037 18.6257 23.6243 18.3534L23.6128 18.3287Z" fill="url(#paint26_linear_979_187821)"/>
</mask>
<g mask="url(#mask0_979_187821)">
<rect x="9.0625" y="3.4873" width="21.875" height="32.8125" fill="url(#paint27_linear_979_187821)" style="mix-blend-mode:color"/>
</g>
<g opacity="0.6">
<path d="M35.3966 20.8758L35.6649 21.8217L34.0613 21.9859L33.9799 21.137L35.3966 20.8758Z" fill="url(#paint28_linear_979_187821)"/>
<path d="M34.7545 19.736L35.2126 20.5906L33.89 20.8532L33.6188 20.0957L34.7545 19.736Z" fill="url(#paint29_linear_979_187821)"/>
<path d="M33.9222 18.6874L34.57 19.4507L33.4358 19.7161L32.788 18.9529L33.9222 18.6874Z" fill="url(#paint30_linear_979_187821)"/>
<path opacity="0.8" d="M32.808 17.6344L33.6441 18.4005L32.5099 18.666L31.6737 17.8999L32.808 17.6344Z" fill="url(#paint31_linear_979_187821)"/>
<path opacity="0.6" d="M31.5038 16.673L32.4355 17.3463L31.3954 17.6133L30.3695 16.9385L31.5038 16.673Z" fill="url(#paint32_linear_979_187821)"/>
<path opacity="0.4" d="M30.0101 15.803L31.0374 16.3836L30.0901 16.7461L29.1569 16.1669L30.0101 15.803Z" fill="url(#paint33_linear_979_187821)"/>
<path opacity="0.1" d="M28.5148 15.027L29.5421 15.6075L28.7831 15.9729L27.7544 15.4865L28.5148 15.027Z" fill="url(#paint34_linear_979_187821)"/>
</g>
<g opacity="0.4">
<path d="M8.27057 22.5675L9.70481 23.2261L11.1908 22.414L9.85635 21.9197L8.27057 22.5675Z" fill="url(#paint35_linear_979_187821)"/>
<path d="M6.95864 21.2948L7.98557 22.2456L9.48567 21.6049L8.56553 20.9041L6.95864 21.2948Z" fill="url(#paint36_linear_979_187821)"/>
<path d="M6.75384 19.8454L6.83825 20.8736L8.36649 20.5756L8.21046 19.7258L6.75384 19.8454Z" fill="url(#paint37_linear_979_187821)"/>
<path d="M6.90518 18.5389L6.71847 19.4168L8.18916 19.4686L8.21153 18.6904L6.90518 18.5389Z" fill="url(#paint38_linear_979_187821)"/>
<path d="M10.3329 23.5196L12.0958 23.9787L13.218 22.9377L11.7262 22.6289L10.3329 23.5196Z" fill="url(#paint39_linear_979_187821)"/>
</g>
<path opacity="0.6" d="M35.039 9.24232L33.2409 8.3548L31.3405 9.37343L32.8029 10.3748L35.039 9.24232Z" fill="url(#paint40_linear_979_187821)"/>
<path opacity="0.4" d="M32.3562 8.08222L30.3432 7.7299L29.0497 8.78498L30.8912 9.15136L32.3562 8.08222Z" fill="url(#paint41_linear_979_187821)"/>
<path opacity="0.2" d="M29.3075 7.72899L27.6655 7.69127L26.879 8.61845L28.5281 8.74185L29.3075 7.72899Z" fill="url(#paint42_linear_979_187821)"/>
<path d="M36.5926 11.3575L35.4308 9.8139L33.359 10.8466L34.0784 12.254L36.5926 11.3575Z" fill="url(#paint43_linear_979_187821)"/>
<path d="M35.4899 14.7258L36.3423 12.4993L34.1426 13.0249L33.2622 14.9087L35.4899 14.7258Z" fill="url(#paint44_linear_979_187821)"/>
<path d="M33.4793 17.5651L35.0522 15.7107L32.8245 15.8936L31.3877 17.3055L33.4793 17.5651Z" fill="url(#paint45_linear_979_187821)"/>
<path d="M31.121 19.3112L32.7432 18.0566L30.9943 17.7689L29.6081 18.7453L31.121 19.3112Z" fill="url(#paint46_linear_979_187821)"/>
<path d="M28.6563 20.8077L30.464 19.7104L29.1225 19.1304L27.5507 19.9495L28.6563 20.8077Z" fill="url(#paint47_linear_979_187821)"/>
<path d="M26.0845 22.0537L28.0706 21.028L26.8864 20.2626L25.2219 21.0031L26.0845 22.0537Z" fill="url(#paint48_linear_979_187821)"/>
<path d="M23.3204 23.0575L25.4919 22.1891L24.722 21.2172L22.8721 21.8003L23.3204 23.0575Z" fill="url(#paint49_linear_979_187821)"/>
<path d="M20.5209 23.632L22.5492 23.1205L22.365 21.9279L20.6654 22.24L20.5209 23.632Z" fill="url(#paint50_linear_979_187821)"/>
<path d="M17.8791 24.0213L19.9215 23.6811L20.073 22.3748L18.2877 22.6938L17.8791 24.0213Z" fill="url(#paint51_linear_979_187821)"/>
<path d="M15.0507 24.2535L17.1927 24.0777L17.687 22.7432L15.9733 22.8838L15.0507 24.2535Z" fill="url(#paint52_linear_979_187821)"/>
<path opacity="0.8" d="M12.6243 24.1078L14.4447 24.2171L15.3815 23.0188L13.6538 22.9881L12.6243 24.1078Z" fill="url(#paint53_linear_979_187821)"/>
<path opacity="0.6" d="M7.42053 17.4616L7.05542 18.2679L8.27609 18.4265L8.47687 17.7199L7.42053 17.4616Z" fill="url(#paint54_linear_979_187821)"/>
<path opacity="0.6" d="M8.1134 16.456L7.56989 17.1907L8.61919 17.3633L9.1627 16.6286L8.1134 16.456Z" fill="url(#paint55_linear_979_187821)"/>
<path opacity="0.5" d="M9.06457 15.4291L8.34969 16.1779L9.399 16.3506L10.1139 15.6018L9.06457 15.4291Z" fill="url(#paint56_linear_979_187821)"/>
<path opacity="0.4" d="M10.1937 14.4736L9.38612 15.1437L10.3497 15.3234L11.243 14.6462L10.1937 14.4736Z" fill="url(#paint57_linear_979_187821)"/>
<path opacity="0.3" d="M11.5011 13.5899L10.6008 14.1814L11.4857 14.4538L12.3004 13.8693L11.5011 13.5899Z" fill="url(#paint58_linear_979_187821)"/>
<path opacity="0.1" d="M12.8165 12.7914L11.9162 13.3829L12.6298 13.6693L13.5371 13.1635L12.8165 12.7914Z" fill="url(#paint59_linear_979_187821)"/>
<path opacity="0.6" d="M3.9659 12.7735L5.86621 11.6719L8.01784 12.6462L6.49277 13.8476L3.9659 12.7735Z" fill="url(#paint60_linear_979_187821)"/>
<path opacity="0.4" d="M6.81376 11.3094L8.98807 10.777L10.4791 11.8355L8.49314 12.3707L6.81376 11.3094Z" fill="url(#paint61_linear_979_187821)"/>
<path opacity="0.2" d="M10.1195 10.6996L11.9115 10.5382L12.8389 11.494L11.0455 11.7496L10.1195 10.6996Z" fill="url(#paint62_linear_979_187821)"/>
<path opacity="0.8" d="M2.68195 15.2587L3.57945 13.4272L5.91941 14.4042L5.23616 15.9951L2.68195 15.2587Z" fill="url(#paint63_linear_979_187821)"/>
<path d="M3.87531 18.8001L2.78076 16.429L5.22339 16.8425L6.32361 18.8369L3.87531 18.8001Z" fill="url(#paint64_linear_979_187821)"/>
<path d="M6.28001 21.7561L4.42505 19.8445L6.87334 19.8813L8.54706 21.3193L6.28001 21.7561Z" fill="url(#paint65_linear_979_187821)"/>
<path d="M8.98499 23.4921L7.12011 22.2396L9.0105 21.7971L10.5971 22.7629L8.98499 23.4921Z" fill="url(#paint66_linear_979_187821)"/>
<path d="M11.7886 24.9475L9.73256 23.8805L11.1564 23.1485L12.9342 23.9287L11.7886 24.9475Z" fill="url(#paint67_linear_979_187821)"/>
<path d="M14.6906 26.1212L12.4448 25.1455L13.6831 24.2223L15.5565 24.9098L14.6906 26.1212Z" fill="url(#paint68_linear_979_187821)"/>
<path d="M17.8987 26.8766L15.4366 26.3083L16.119 25.1067L18.1835 25.6087L17.8987 26.8766Z" fill="url(#paint69_linear_979_187821)"/>
<path d="M20.8873 27.4387L18.633 27.028L18.747 25.7111L20.6275 25.9278L20.8873 27.4387Z" fill="url(#paint70_linear_979_187821)"/>
<path d="M23.8038 27.6713L21.5466 27.449L21.2854 26.0322L23.26 26.2503L23.8038 27.6713Z" fill="url(#paint71_linear_979_187821)"/>
<path d="M26.9112 27.7176L24.5571 27.6822L23.9192 26.2598L25.8025 26.2881L26.9112 27.7176Z" fill="url(#paint72_linear_979_187821)"/>
<path d="M29.5533 27.3809L27.5716 27.6336L26.4601 26.3924L28.3462 26.2324L29.5533 27.3809Z" fill="url(#paint73_linear_979_187821)"/>
<path d="M32.0141 26.57L30.1208 27.2008L28.8181 26.1451L30.426 25.6984L32.0141 26.57Z" fill="url(#paint74_linear_979_187821)"/>
<path d="M34.1987 25.3786L32.6793 26.2034L30.9957 25.4245L32.4181 24.7866L34.1987 25.3786Z" fill="url(#paint75_linear_979_187821)"/>
<path d="M35.5395 23.8922L34.4867 25.0066L32.8002 24.4161L33.7546 23.5828L35.5395 23.8922Z" fill="url(#paint76_linear_979_187821)"/>
<path d="M35.6579 22.2926L35.6409 23.4226L33.9487 23.2087L34.0571 22.2685L35.6579 22.2926Z" fill="url(#paint77_linear_979_187821)"/>
<defs>
<linearGradient id="paint0_linear_979_187821" x1="19.4306" y1="29.8408" x2="19.4306" y2="34.233" gradientUnits="userSpaceOnUse">
<stop stop-color="white"/>
<stop offset="1"/>
</linearGradient>
<linearGradient id="paint1_linear_979_187821" x1="19.4306" y1="29.8408" x2="19.4306" y2="34.233" gradientUnits="userSpaceOnUse">
<stop/>
<stop offset="1" stop-color="white"/>
</linearGradient>
<linearGradient id="paint2_linear_979_187821" x1="19.043" y1="30.6157" x2="19.043" y2="36.2998" gradientUnits="userSpaceOnUse">
<stop/>
<stop offset="1" stop-color="white"/>
</linearGradient>
<linearGradient id="paint3_linear_979_187821" x1="19.043" y1="30.6157" x2="19.043" y2="36.2998" gradientUnits="userSpaceOnUse">
<stop/>
<stop offset="1" stop-color="white"/>
</linearGradient>
<linearGradient id="paint4_linear_979_187821" x1="19.9475" y1="18.731" x2="19.9475" y2="30.8742" gradientUnits="userSpaceOnUse">
<stop stop-color="white"/>
<stop offset="1"/>
</linearGradient>
<linearGradient id="paint5_linear_979_187821" x1="19.9475" y1="18.731" x2="19.9475" y2="30.8742" gradientUnits="userSpaceOnUse">
<stop/>
<stop offset="1" stop-color="white"/>
</linearGradient>
<linearGradient id="paint6_linear_979_187821" x1="20.4642" y1="19.2478" x2="20.4642" y2="30.0992" gradientUnits="userSpaceOnUse">
<stop/>
<stop offset="1" stop-color="white"/>
</linearGradient>
<linearGradient id="paint7_linear_979_187821" x1="20.4642" y1="19.2478" x2="20.4642" y2="30.0992" gradientUnits="userSpaceOnUse">
<stop/>
<stop offset="1" stop-color="white"/>
</linearGradient>
<linearGradient id="paint8_linear_979_187821" x1="18.5264" y1="22.3484" x2="18.5264" y2="27.9463" gradientUnits="userSpaceOnUse">
<stop/>
<stop offset="1" stop-color="white"/>
</linearGradient>
<linearGradient id="paint9_linear_979_187821" x1="18.5264" y1="22.3484" x2="18.5264" y2="27.9463" gradientUnits="userSpaceOnUse">
<stop/>
<stop offset="1" stop-color="white"/>
</linearGradient>
<linearGradient id="paint10_linear_979_187821" x1="19.9475" y1="17.3101" x2="19.9475" y2="19.7645" gradientUnits="userSpaceOnUse">
<stop stop-color="white"/>
<stop offset="1"/>
</linearGradient>
<linearGradient id="paint11_linear_979_187821" x1="19.9475" y1="17.3101" x2="19.9475" y2="19.7645" gradientUnits="userSpaceOnUse">
<stop/>
<stop offset="1" stop-color="white"/>
</linearGradient>
<linearGradient id="paint12_linear_979_187821" x1="19.9475" y1="15.6306" x2="19.9475" y2="18.9894" gradientUnits="userSpaceOnUse">
<stop/>
<stop offset="1" stop-color="white"/>
</linearGradient>
<linearGradient id="paint13_linear_979_187821" x1="20.7225" y1="3.4873" x2="20.7225" y2="17.4391" gradientUnits="userSpaceOnUse">
<stop stop-color="white"/>
<stop offset="1"/>
</linearGradient>
<linearGradient id="paint14_linear_979_187821" x1="20.7225" y1="3.4873" x2="20.7225" y2="17.4391" gradientUnits="userSpaceOnUse">
<stop/>
<stop offset="1" stop-color="white"/>
</linearGradient>
<linearGradient id="paint15_linear_979_187821" x1="20.5934" y1="5.10205" x2="20.5934" y2="16.4056" gradientUnits="userSpaceOnUse">
<stop/>
<stop offset="1" stop-color="white"/>
</linearGradient>
<linearGradient id="paint16_linear_979_187821" x1="20.5934" y1="5.10205" x2="20.5934" y2="16.4056" gradientUnits="userSpaceOnUse">
<stop/>
<stop offset="1" stop-color="white"/>
</linearGradient>
<linearGradient id="paint17_linear_979_187821" x1="21.7207" y1="6.97534" x2="21.7207" y2="16.4057" gradientUnits="userSpaceOnUse">
<stop/>
<stop offset="1" stop-color="white"/>
</linearGradient>
<linearGradient id="paint18_linear_979_187821" x1="21.7207" y1="6.97534" x2="21.7207" y2="16.4057" gradientUnits="userSpaceOnUse">
<stop/>
<stop offset="1" stop-color="white"/>
</linearGradient>
<linearGradient id="paint19_linear_979_187821" x1="18.7847" y1="3.4873" x2="18.7847" y2="17.9558" gradientUnits="userSpaceOnUse">
<stop stop-color="white"/>
<stop offset="1"/>
</linearGradient>
<linearGradient id="paint20_linear_979_187821" x1="18.7847" y1="3.4873" x2="18.7847" y2="17.9558" gradientUnits="userSpaceOnUse">
<stop/>
<stop offset="1" stop-color="white"/>
</linearGradient>
<linearGradient id="paint21_linear_979_187821" x1="18.7847" y1="13.0469" x2="18.7847" y2="17.4391" gradientUnits="userSpaceOnUse">
<stop/>
<stop offset="1" stop-color="white"/>
</linearGradient>
<linearGradient id="paint22_linear_979_187821" x1="18.7847" y1="13.0469" x2="18.7847" y2="17.4391" gradientUnits="userSpaceOnUse">
<stop/>
<stop offset="1" stop-color="white"/>
</linearGradient>
<linearGradient id="paint23_linear_979_187821" x1="18.1387" y1="5.0376" x2="18.1387" y2="17.8913" gradientUnits="userSpaceOnUse">
<stop/>
<stop offset="1" stop-color="white"/>
</linearGradient>
<linearGradient id="paint24_linear_979_187821" x1="18.1387" y1="5.0376" x2="18.1387" y2="17.8913" gradientUnits="userSpaceOnUse">
<stop/>
<stop offset="1" stop-color="white"/>
</linearGradient>
<linearGradient id="paint25_linear_979_187821" x1="18.1389" y1="5.03735" x2="18.1389" y2="17.891" gradientUnits="userSpaceOnUse">
<stop/>
<stop offset="1" stop-color="white"/>
</linearGradient>
<linearGradient id="paint26_linear_979_187821" x1="18.1389" y1="5.03735" x2="18.1389" y2="17.891" gradientUnits="userSpaceOnUse">
<stop/>
<stop offset="1" stop-color="white"/>
</linearGradient>
<linearGradient id="paint27_linear_979_187821" x1="20" y1="36.2998" x2="20" y2="3.4873" gradientUnits="userSpaceOnUse">
<stop stop-color="#6A11CB"/>
<stop offset="1" stop-color="#2575FC"/>
</linearGradient>
<linearGradient id="paint28_linear_979_187821" x1="33.9756" y1="21.4195" x2="35.6706" y2="21.445" gradientUnits="userSpaceOnUse">
<stop stop-color="#FFAC0B"/>
<stop offset="1" stop-color="#FFDD3E"/>
</linearGradient>
<linearGradient id="paint29_linear_979_187821" x1="33.616" y1="20.284" x2="35.2168" y2="20.3081" gradientUnits="userSpaceOnUse">
<stop stop-color="#FFAC0B"/>
<stop offset="1" stop-color="#FFDD3E"/>
</linearGradient>
<linearGradient id="paint30_linear_979_187821" x1="32.7844" y1="19.1883" x2="34.5736" y2="19.2152" gradientUnits="userSpaceOnUse">
<stop stop-color="#FFAC0B"/>
<stop offset="1" stop-color="#FFDD3E"/>
</linearGradient>
<linearGradient id="paint31_linear_979_187821" x1="31.6702" y1="18.1353" x2="33.6477" y2="18.1651" gradientUnits="userSpaceOnUse">
<stop stop-color="#FFAC0B"/>
<stop offset="1" stop-color="#FFDD3E"/>
</linearGradient>
<linearGradient id="paint32_linear_979_187821" x1="30.3667" y1="17.1268" x2="32.4383" y2="17.158" gradientUnits="userSpaceOnUse">
<stop stop-color="#FFAC0B"/>
<stop offset="1" stop-color="#FFDD3E"/>
</linearGradient>
<linearGradient id="paint33_linear_979_187821" x1="29.1555" y1="16.2611" x2="31.0388" y2="16.2895" gradientUnits="userSpaceOnUse">
<stop stop-color="#FFAC0B"/>
<stop offset="1" stop-color="#FFDD3E"/>
</linearGradient>
<linearGradient id="paint34_linear_979_187821" x1="27.7544" y1="15.4865" x2="29.5435" y2="15.5134" gradientUnits="userSpaceOnUse">
<stop stop-color="#FFAC0B"/>
<stop offset="1" stop-color="#FFDD3E"/>
</linearGradient>
<linearGradient id="paint35_linear_979_187821" x1="11.1944" y1="22.4568" x2="8.28112" y2="22.696" gradientUnits="userSpaceOnUse">
<stop stop-color="#FFAC0B"/>
<stop offset="1" stop-color="#FFDD3E"/>
</linearGradient>
<linearGradient id="paint36_linear_979_187821" x1="9.47512" y1="21.4764" x2="6.9903" y2="21.6804" gradientUnits="userSpaceOnUse">
<stop stop-color="#FFAC0B"/>
<stop offset="1" stop-color="#FFDD3E"/>
</linearGradient>
<linearGradient id="paint37_linear_979_187821" x1="8.33835" y1="20.2329" x2="6.79604" y2="20.3595" gradientUnits="userSpaceOnUse">
<stop stop-color="#FFAC0B"/>
<stop offset="1" stop-color="#FFDD3E"/>
</linearGradient>
<linearGradient id="paint38_linear_979_187821" x1="8.23264" y1="18.9475" x2="6.69033" y2="19.0741" gradientUnits="userSpaceOnUse">
<stop stop-color="#FFAC0B"/>
<stop offset="1" stop-color="#FFDD3E"/>
</linearGradient>
<linearGradient id="paint39_linear_979_187821" x1="13.2391" y1="23.1948" x2="10.3259" y2="23.4339" gradientUnits="userSpaceOnUse">
<stop stop-color="#FFAC0B"/>
<stop offset="1" stop-color="#FFDD3E"/>
</linearGradient>
<linearGradient id="paint40_linear_979_187821" x1="35.0355" y1="9.19948" x2="31.3511" y2="9.50195" gradientUnits="userSpaceOnUse">
<stop stop-color="#FFAC0B"/>
<stop offset="1" stop-color="#FFDD3E"/>
</linearGradient>
<linearGradient id="paint41_linear_979_187821" x1="32.3738" y1="8.29643" x2="29.0321" y2="8.57077" gradientUnits="userSpaceOnUse">
<stop stop-color="#FFAC0B"/>
<stop offset="1" stop-color="#FFDD3E"/>
</linearGradient>
<linearGradient id="paint42_linear_979_187821" x1="29.3392" y1="8.11456" x2="26.8544" y2="8.31856" gradientUnits="userSpaceOnUse">
<stop stop-color="#FFAC0B"/>
<stop offset="1" stop-color="#FFDD3E"/>
</linearGradient>
<linearGradient id="paint43_linear_979_187821" x1="36.5539" y1="10.8862" x2="33.3837" y2="11.1465" gradientUnits="userSpaceOnUse">
<stop stop-color="#FFAC0B"/>
<stop offset="1" stop-color="#FFDD3E"/>
</linearGradient>
<linearGradient id="paint44_linear_979_187821" x1="36.4302" y1="13.5703" x2="33.1742" y2="13.8376" gradientUnits="userSpaceOnUse">
<stop stop-color="#FFAC0B"/>
<stop offset="1" stop-color="#FFDD3E"/>
</linearGradient>
<linearGradient id="paint45_linear_979_187821" x1="35.1226" y1="16.5675" x2="31.3525" y2="16.877" gradientUnits="userSpaceOnUse">
<stop stop-color="#FFAC0B"/>
<stop offset="1" stop-color="#FFDD3E"/>
</linearGradient>
<linearGradient id="paint46_linear_979_187821" x1="32.7713" y1="18.3993" x2="29.601" y2="18.6596" gradientUnits="userSpaceOnUse">
<stop stop-color="#FFAC0B"/>
<stop offset="1" stop-color="#FFDD3E"/>
</linearGradient>
<linearGradient id="paint47_linear_979_187821" x1="30.4745" y1="19.8389" x2="27.5613" y2="20.0781" gradientUnits="userSpaceOnUse">
<stop stop-color="#FFAC0B"/>
<stop offset="1" stop-color="#FFDD3E"/>
</linearGradient>
<linearGradient id="paint48_linear_979_187821" x1="28.0706" y1="21.028" x2="25.243" y2="21.2601" gradientUnits="userSpaceOnUse">
<stop stop-color="#FFAC0B"/>
<stop offset="1" stop-color="#FFDD3E"/>
</linearGradient>
<linearGradient id="paint49_linear_979_187821" x1="25.4778" y1="22.0177" x2="22.9073" y2="22.2288" gradientUnits="userSpaceOnUse">
<stop stop-color="#FFAC0B"/>
<stop offset="1" stop-color="#FFDD3E"/>
</linearGradient>
<linearGradient id="paint50_linear_979_187821" x1="22.514" y1="22.6921" x2="20.4576" y2="22.8609" gradientUnits="userSpaceOnUse">
<stop stop-color="#FFAC0B"/>
<stop offset="1" stop-color="#FFDD3E"/>
</linearGradient>
<linearGradient id="paint51_linear_979_187821" x1="20.1328" y1="23.1031" x2="17.8193" y2="23.293" gradientUnits="userSpaceOnUse">
<stop stop-color="#FFAC0B"/>
<stop offset="1" stop-color="#FFDD3E"/>
</linearGradient>
<linearGradient id="paint52_linear_979_187821" x1="17.7398" y1="23.3858" x2="14.9979" y2="23.6109" gradientUnits="userSpaceOnUse">
<stop stop-color="#FFAC0B"/>
<stop offset="1" stop-color="#FFDD3E"/>
</linearGradient>
<linearGradient id="paint53_linear_979_187821" x1="15.4202" y1="23.49" x2="12.5926" y2="23.7222" gradientUnits="userSpaceOnUse">
<stop stop-color="#FFAC0B"/>
<stop offset="1" stop-color="#FFDD3E"/>
</linearGradient>
<linearGradient id="paint54_linear_979_187821" x1="8.49094" y1="17.8913" x2="7.03432" y2="18.0109" gradientUnits="userSpaceOnUse">
<stop stop-color="#FFAC0B"/>
<stop offset="1" stop-color="#FFDD3E"/>
</linearGradient>
<linearGradient id="paint55_linear_979_187821" x1="9.18029" y1="16.8428" x2="7.5523" y2="16.9765" gradientUnits="userSpaceOnUse">
<stop stop-color="#FFAC0B"/>
<stop offset="1" stop-color="#FFDD3E"/>
</linearGradient>
<linearGradient id="paint56_linear_979_187821" x1="10.1315" y1="15.816" x2="8.33211" y2="15.9637" gradientUnits="userSpaceOnUse">
<stop stop-color="#FFAC0B"/>
<stop offset="1" stop-color="#FFDD3E"/>
</linearGradient>
<linearGradient id="paint57_linear_979_187821" x1="11.2571" y1="14.8176" x2="9.37206" y2="14.9723" gradientUnits="userSpaceOnUse">
<stop stop-color="#FFAC0B"/>
<stop offset="1" stop-color="#FFDD3E"/>
</linearGradient>
<linearGradient id="paint58_linear_979_187821" x1="12.3074" y1="13.955" x2="10.5937" y2="14.0957" gradientUnits="userSpaceOnUse">
<stop stop-color="#FFAC0B"/>
<stop offset="1" stop-color="#FFDD3E"/>
</linearGradient>
<linearGradient id="paint59_linear_979_187821" x1="13.5371" y1="13.1635" x2="11.9091" y2="13.2972" gradientUnits="userSpaceOnUse">
<stop stop-color="#FFAC0B"/>
<stop offset="1" stop-color="#FFDD3E"/>
</linearGradient>
<linearGradient id="paint60_linear_979_187821" x1="3.96661" y1="12.7265" x2="8.01571" y2="12.7874" gradientUnits="userSpaceOnUse">
<stop stop-color="#FFAC0B"/>
<stop offset="1" stop-color="#FFDD3E"/>
</linearGradient>
<linearGradient id="paint61_linear_979_187821" x1="6.81022" y1="11.5448" x2="10.4827" y2="11.6001" gradientUnits="userSpaceOnUse">
<stop stop-color="#FFAC0B"/>
<stop offset="1" stop-color="#FFDD3E"/>
</linearGradient>
<linearGradient id="paint62_linear_979_187821" x1="10.1131" y1="11.1233" x2="12.8439" y2="11.1644" gradientUnits="userSpaceOnUse">
<stop stop-color="#FFAC0B"/>
<stop offset="1" stop-color="#FFDD3E"/>
</linearGradient>
<linearGradient id="paint63_linear_979_187821" x1="2.69058" y1="14.6853" x2="5.91445" y2="14.7338" gradientUnits="userSpaceOnUse">
<stop stop-color="#FFAC0B"/>
<stop offset="1" stop-color="#FFDD3E"/>
</linearGradient>
<linearGradient id="paint64_linear_979_187821" x1="2.76304" y1="17.606" x2="6.34132" y2="17.6599" gradientUnits="userSpaceOnUse">
<stop stop-color="#FFAC0B"/>
<stop offset="1" stop-color="#FFDD3E"/>
</linearGradient>
<linearGradient id="paint65_linear_979_187821" x1="4.41087" y1="20.7861" x2="8.55414" y2="20.8485" gradientUnits="userSpaceOnUse">
<stop stop-color="#FFAC0B"/>
<stop offset="1" stop-color="#FFDD3E"/>
</linearGradient>
<linearGradient id="paint66_linear_979_187821" x1="7.11444" y1="22.6163" x2="10.5986" y2="22.6687" gradientUnits="userSpaceOnUse">
<stop stop-color="#FFAC0B"/>
<stop offset="1" stop-color="#FFDD3E"/>
</linearGradient>
<linearGradient id="paint67_linear_979_187821" x1="9.73043" y1="24.0218" x2="12.932" y2="24.07" gradientUnits="userSpaceOnUse">
<stop stop-color="#FFAC0B"/>
<stop offset="1" stop-color="#FFDD3E"/>
</linearGradient>
<linearGradient id="paint68_linear_979_187821" x1="12.4448" y1="25.1455" x2="15.5523" y2="25.1923" gradientUnits="userSpaceOnUse">
<stop stop-color="#FFAC0B"/>
<stop offset="1" stop-color="#FFDD3E"/>
</linearGradient>
<linearGradient id="paint69_linear_979_187821" x1="15.4417" y1="25.968" x2="18.1775" y2="26.0092" gradientUnits="userSpaceOnUse">
<stop stop-color="#FFAC0B"/>
<stop offset="1" stop-color="#FFDD3E"/>
</linearGradient>
<linearGradient id="paint70_linear_979_187821" x1="18.6401" y1="26.5572" x2="20.9" y2="26.5912" gradientUnits="userSpaceOnUse">
<stop stop-color="#FFAC0B"/>
<stop offset="1" stop-color="#FFDD3E"/>
</linearGradient>
<linearGradient id="paint71_linear_979_187821" x1="21.2734" y1="26.8326" x2="23.8158" y2="26.8709" gradientUnits="userSpaceOnUse">
<stop stop-color="#FFAC0B"/>
<stop offset="1" stop-color="#FFDD3E"/>
</linearGradient>
<linearGradient id="paint72_linear_979_187821" x1="23.9086" y1="26.966" x2="26.9218" y2="27.0114" gradientUnits="userSpaceOnUse">
<stop stop-color="#FFAC0B"/>
<stop offset="1" stop-color="#FFDD3E"/>
</linearGradient>
<linearGradient id="paint73_linear_979_187821" x1="26.4523" y1="26.9103" x2="29.5597" y2="26.9571" gradientUnits="userSpaceOnUse">
<stop stop-color="#FFAC0B"/>
<stop offset="1" stop-color="#FFDD3E"/>
</linearGradient>
<linearGradient id="paint74_linear_979_187821" x1="28.8139" y1="26.4276" x2="32.0155" y2="26.4758" gradientUnits="userSpaceOnUse">
<stop stop-color="#FFAC0B"/>
<stop offset="1" stop-color="#FFDD3E"/>
</linearGradient>
<linearGradient id="paint75_linear_979_187821" x1="30.995" y1="25.4716" x2="34.1966" y2="25.5198" gradientUnits="userSpaceOnUse">
<stop stop-color="#FFAC0B"/>
<stop offset="1" stop-color="#FFDD3E"/>
</linearGradient>
<linearGradient id="paint76_linear_979_187821" x1="32.8024" y1="24.2748" x2="35.5331" y2="24.3159" gradientUnits="userSpaceOnUse">
<stop stop-color="#FFAC0B"/>
<stop offset="1" stop-color="#FFDD3E"/>
</linearGradient>
<linearGradient id="paint77_linear_979_187821" x1="33.9544" y1="22.8321" x2="35.6494" y2="22.8576" gradientUnits="userSpaceOnUse">
<stop stop-color="#FFAC0B"/>
<stop offset="1" stop-color="#FFDD3E"/>
</linearGradient>
</defs>
</svg>
