<svg width="39" height="27" viewBox="0 0 39 27" fill="none" xmlns="http://www.w3.org/2000/svg">
<path d="M0 0.162H4.95C6.354 0.162 7.56 0.414 8.568 0.918C9.576 1.422 10.344 2.154 10.872 3.114C11.412 4.074 11.682 5.22 11.682 6.552C11.682 7.896 11.418 9.048 10.89 10.008C10.362 10.968 9.594 11.706 8.586 12.222C7.578 12.726 6.366 12.978 4.95 12.978H0V0.162ZM4.77 10.71C7.506 10.71 8.874 9.324 8.874 6.552C8.874 3.804 7.506 2.43 4.77 2.43H2.808V10.71H4.77Z" fill="white"/>
<path d="M22.1032 10.134H16.1092L14.8852 12.978H12.0592L17.9452 0.162H20.2132L26.0992 12.978H23.3272L22.1032 10.134ZM21.1852 7.992L19.1152 3.186L17.0452 7.992H21.1852Z" fill="white"/>
<path d="M32.7278 13.14C31.4558 13.14 30.3458 12.876 29.3978 12.348C28.4618 11.808 27.7358 11.04 27.2198 10.044C26.7158 9.048 26.4638 7.884 26.4638 6.552C26.4638 5.22 26.7158 4.062 27.2198 3.078C27.7358 2.094 28.4618 1.338 29.3978 0.809999C30.3458 0.27 31.4558 0 32.7278 0C33.9998 0 35.1038 0.27 36.0398 0.809999C36.9758 1.338 37.6958 2.094 38.1998 3.078C38.7038 4.062 38.9558 5.22 38.9558 6.552C38.9558 7.884 38.7038 9.048 38.1998 10.044C37.6958 11.04 36.9758 11.808 36.0398 12.348C35.1038 12.876 33.9998 13.14 32.7278 13.14ZM32.7278 10.944C33.8078 10.944 34.6478 10.566 35.2478 9.81C35.8598 9.054 36.1658 7.968 36.1658 6.552C36.1658 5.136 35.8598 4.056 35.2478 3.312C34.6478 2.568 33.8078 2.196 32.7278 2.196C31.6478 2.196 30.8018 2.568 30.1898 3.312C29.5898 4.056 29.2898 5.136 29.2898 6.552C29.2898 7.98 29.5898 9.072 30.1898 9.828C30.8018 10.572 31.6478 10.944 32.7278 10.944Z" fill="white"/>
<path d="M3.58871 26.2648C2.89412 26.2648 2.22526 26.1748 1.58212 25.9947C0.947557 25.806 0.420184 25.5445 0 25.2101L0.643139 23.7694C1.52638 24.3869 2.51253 24.6956 3.60157 24.6956C4.18469 24.6956 4.6306 24.6055 4.9393 24.4254C5.25658 24.2368 5.41523 23.9752 5.41523 23.6408C5.41523 23.3493 5.26945 23.122 4.97789 22.9591C4.69491 22.7876 4.19326 22.6247 3.47295 22.4703C2.66688 22.3074 2.02374 22.1101 1.54353 21.8786C1.0719 21.6385 0.724602 21.3512 0.501648 21.0168C0.287268 20.6738 0.180081 20.2493 0.180081 19.7434C0.180081 19.1946 0.330144 18.7015 0.630275 18.2642C0.938982 17.8268 1.36774 17.4881 1.91655 17.248C2.46537 16.9993 3.09993 16.875 3.82024 16.875C4.47195 16.875 5.09794 16.9693 5.69821 17.158C6.29847 17.3466 6.77868 17.6039 7.13884 17.9297L6.4957 19.3704C5.68963 18.753 4.8021 18.4443 3.83311 18.4443C3.31859 18.4443 2.90699 18.5472 2.59828 18.753C2.28957 18.9588 2.13522 19.2375 2.13522 19.589C2.13522 19.7948 2.19096 19.9664 2.30243 20.1036C2.42249 20.2408 2.61972 20.3651 2.89412 20.4766C3.16853 20.5795 3.5587 20.6824 4.06463 20.7853C5.23943 21.0425 6.08409 21.377 6.5986 21.7886C7.12168 22.2002 7.38323 22.7619 7.38323 23.4736C7.38323 24.3311 7.0488 25.0128 6.37993 25.5188C5.71107 26.0161 4.78066 26.2648 3.58871 26.2648Z" fill="white"/>
<path d="M10.7607 18.6243H7.89231V16.9908H15.6614V18.6243H12.793V26.1491H10.7607V18.6243Z" fill="white"/>
<path d="M21.6952 24.1167H17.4119L16.5372 26.1491H14.5177L18.7239 16.9908H20.3446L24.5507 26.1491H22.5698L21.6952 24.1167ZM21.0392 22.5861L19.5599 19.1517L18.0807 22.5861H21.0392Z" fill="white"/>
<path d="M26.2865 18.6243H23.4181V16.9908H31.1872V18.6243H28.3188V26.1491H26.2865V18.6243Z" fill="white"/>
<path d="M35.2055 26.2648C34.5109 26.2648 33.842 26.1748 33.1989 25.9947C32.5643 25.806 32.037 25.5445 31.6168 25.2101L32.2599 23.7694C33.1432 24.3869 34.1293 24.6956 35.2183 24.6956C35.8015 24.6956 36.2474 24.6055 36.5561 24.4254C36.8734 24.2368 37.032 23.9752 37.032 23.6408C37.032 23.3493 36.8862 23.122 36.5947 22.9591C36.3117 22.7876 35.81 22.6247 35.0897 22.4703C34.2837 22.3074 33.6405 22.1101 33.1603 21.8786C32.6887 21.6385 32.3414 21.3512 32.1184 21.0168C31.904 20.6738 31.7969 20.2493 31.7969 19.7434C31.7969 19.1946 31.9469 18.7015 32.2471 18.2642C32.5558 17.8268 32.9845 17.4881 33.5333 17.248C34.0821 16.9993 34.7167 16.875 35.437 16.875C36.0887 16.875 36.7147 16.9693 37.315 17.158C37.9152 17.3466 38.3954 17.6039 38.7556 17.9297L38.1125 19.3704C37.3064 18.753 36.4189 18.4443 35.4499 18.4443C34.9354 18.4443 34.5238 18.5472 34.2151 18.753C33.9063 18.9588 33.752 19.2375 33.752 19.589C33.752 19.7948 33.8077 19.9664 33.9192 20.1036C34.0393 20.2408 34.2365 20.3651 34.5109 20.4766C34.7853 20.5795 35.1755 20.6824 35.6814 20.7853C36.8562 21.0425 37.7009 21.377 38.2154 21.7886C38.7385 22.2002 39 22.7619 39 23.4736C39 24.3311 38.6656 25.0128 37.9967 25.5188C37.3278 26.0161 36.3974 26.2648 35.2055 26.2648Z" fill="white"/>
</svg>
